<?xml version="1.0" standalone="no"?>
<!DOCTYPE svg PUBLIC "-//W3C//DTD SVG 1.1//EN" "http://www.w3.org/Graphics/SVG/1.1/DTD/svg11.dtd" >
<svg xmlns="http://www.w3.org/2000/svg" xmlns:xlink="http://www.w3.org/1999/xlink" version="1.1">
<metadata>
Created by FontForge 20170731 at Fri Jan 29 00:11:02 2021
 By Aleksey,,,
Copyright (c) 2008 by Monotype Imaging Inc.. All rights reserved.
</metadata>
<defs>
<font id="Gatorade-Medium" horiz-adv-x="1124" >
  <font-face 
    font-family="Gatorade"
    font-weight="500"
    font-stretch="normal"
    units-per-em="2048"
    panose-1="2 0 0 0 0 0 0 0 0 0"
    ascent="1638"
    descent="-410"
    x-height="938"
    cap-height="1360"
    bbox="-303 -549 2298 1835"
    underline-thickness="102"
    underline-position="-307"
    unicode-range="U+0020-FB02"
  />
<missing-glyph horiz-adv-x="1024" 
d="M25 0v1362h972v-1362h-972zM180 1266l332 -498l330 498h-662zM123 1178v-992l330 496zM901 1178l-332 -496l332 -498v994zM842 98l-330 496l-332 -496h662z" />
    <glyph glyph-name="fi" unicode="fi" horiz-adv-x="1144" 
d="M1110 145v-145h-440v145h141v648h-442v-648h192v-145h-491v145h141v648h-141v145h141v104q0 151 73 234.5t216 83.5h479v-217h-191v71h-272q-66 0 -106.5 -45.5t-40.5 -130.5v-100h600v-793h141z" />
    <glyph glyph-name="fl" unicode="fl" 
d="M561 145v-145h-491v145h141v648h-141v145h141v104q0 151 73 234.5t216 83.5h133v-146h-117q-66 0 -106.5 -45.5t-40.5 -130.5v-100h192v-145h-192v-648h192zM1090 145v-145h-441v145h142v1069h-183v146h340v-1215h142z" />
    <glyph glyph-name=".notdef" horiz-adv-x="1024" 
d="M25 0v1362h972v-1362h-972zM180 1266l332 -498l330 498h-662zM123 1178v-992l330 496zM901 1178l-332 -496l332 -498v994zM842 98l-330 496l-332 -496h662z" />
    <glyph glyph-name=".null" horiz-adv-x="0" 
 />
    <glyph glyph-name="nonmarkingreturn" horiz-adv-x="682" 
 />
    <glyph glyph-name="space" unicode=" " horiz-adv-x="526" 
 />
    <glyph glyph-name="exclam" unicode="!" horiz-adv-x="501" 
d="M158 1360h182v-324l-37 -651h-104l-41 651v324zM143 0v219h217v-219h-217z" />
    <glyph glyph-name="quotedbl" unicode="&#x22;" horiz-adv-x="751" 
d="M145 1399h174v-195l-32 -319h-107l-35 319v195zM430 1399h176v-195l-35 -319h-106l-35 319v195z" />
    <glyph glyph-name="numbersign" unicode="#" horiz-adv-x="1175" 
d="M145 829l52 138h217l143 393h133l-143 -393h299l141 393h133l-143 -393h203l-52 -138h-200l-99 -262h218l-52 -137h-215l-155 -430h-133l155 430h-299l-155 -430h-134l156 430h-201l49 137h203l99 262h-220zM496 829l-97 -262h297l99 262h-299z" />
    <glyph glyph-name="dollar" unicode="$" horiz-adv-x="1097" 
d="M106 0l3 401h163v-102q105 -135 224 -170v516q-124 43 -200 93t-118.5 126t-42.5 180q0 144 101.5 246.5t259.5 106.5v147h133v-162q108 -26 190 -108v86h164v-352h-164v73q-77 123 -190 152v-447q207 -62 298 -171.5t91 -264.5q0 -69 -24.5 -135.5t-70.5 -122.5
t-122.5 -92.5t-171.5 -40.5v-178h-133v194q-131 34 -224 134v-109h-166zM844 338q0 86 -49.5 150.5t-165.5 111.5v-483q101 10 158 74t57 147zM311 1049q0 -77 45.5 -128.5t139.5 -89.5v408q-86 -12 -135.5 -62.5t-49.5 -127.5z" />
    <glyph glyph-name="percent" unicode="%" horiz-adv-x="1550" 
d="M35 1032q0 160 94.5 263.5t241.5 103.5q145 0 240.5 -98t95.5 -275q0 -168 -96.5 -268.5t-241.5 -100.5q-46 0 -90.5 11.5t-89.5 40t-78.5 70t-54.5 107t-21 146.5zM561 1026q0 117 -52 177.5t-142 60.5q-86 0 -136.5 -65.5t-50.5 -166.5q0 -109 52.5 -174t138.5 -65
q91 0 140.5 64.5t49.5 168.5zM1217 1389l-748 -1422h-147l745 1422h150zM844 330q0 160 94.5 263t241.5 103q145 0 240.5 -97.5t95.5 -274.5q0 -168 -96.5 -268.5t-241.5 -100.5q-46 0 -90.5 11.5t-89.5 40t-78.5 70t-54.5 107t-21 146.5zM1370 324q0 117 -52 177t-142 60
q-86 0 -136.5 -65t-50.5 -166q0 -109 53 -174.5t138 -65.5q91 0 140.5 65t49.5 169z" />
    <glyph glyph-name="ampersand" unicode="&#x26;" horiz-adv-x="1304" 
d="M854 737h403v-166h-116q-19 -176 -125 -327q48 -48 94 -63t119 -15h28v-166h-40q-189 0 -306 123q-190 -166 -411 -166q-108 0 -195 33t-140.5 88.5t-81.5 125.5t-28 148q0 136 82.5 244.5t229.5 185.5q-33 49 -54.5 88t-43 103.5t-21.5 124.5q0 126 88.5 213.5
t253.5 87.5q142 0 237 -78t95 -209q0 -120 -79 -212t-233 -169q186 -241 303 -383q57 106 72 223h-131v166zM518 131q86 0 162.5 28.5t124.5 71.5q-250 304 -344 426q-211 -118 -211 -284q0 -114 71.5 -178t196.5 -64zM430 1087q0 -57 20 -110.5t70 -128.5
q121 61 176.5 121.5t55.5 136.5q0 60 -42 100.5t-118 40.5q-77 0 -119.5 -45t-42.5 -115z" />
    <glyph glyph-name="quotesingle" unicode="'" horiz-adv-x="464" 
d="M145 1399h174v-195l-32 -319h-107l-35 319v195z" />
    <glyph glyph-name="parenleft" unicode="(" horiz-adv-x="634" 
d="M573 -500h-139q-154 205 -229.5 464.5t-75.5 516.5q0 258 75.5 516t229.5 465h139q-144 -217 -213 -473t-69 -508q0 -250 69 -506.5t213 -474.5z" />
    <glyph glyph-name="parenright" unicode=")" horiz-adv-x="634" 
d="M59 1462h140q154 -204 229.5 -463t75.5 -516q0 -261 -75 -519.5t-230 -463.5h-140q145 219 214 475t69 508q0 249 -69.5 505.5t-213.5 473.5z" />
    <glyph glyph-name="asterisk" unicode="*" horiz-adv-x="790" 
d="M78 1114l41 127l237 -104l-26 262h133l-35 -262l242 104l43 -127l-256 -49l172 -188l-109 -76l-127 223l-127 -223l-108 76l172 188z" />
    <glyph glyph-name="plus" unicode="+" horiz-adv-x="1050" 
d="M971 561h-377v-389h-139v389h-375v146h375v391h139v-391h377v-146z" />
    <glyph glyph-name="comma" unicode="," horiz-adv-x="501" 
d="M141 0v217h219v-102q0 -216 -100 -387h-102q66 132 75 272h-92z" />
    <glyph glyph-name="hyphen" unicode="-" horiz-adv-x="872" 
d="M131 561v146h608v-146h-608z" />
    <glyph glyph-name="period" unicode="." horiz-adv-x="501" 
d="M141 0v219h219v-219h-219z" />
    <glyph glyph-name="slash" unicode="/" horiz-adv-x="827" 
d="M799 1421l-672 -1691h-158l672 1691h158z" />
    <glyph glyph-name="zero" unicode="0" 
d="M55 700q0 148 30 267.5t79.5 197.5t118 130.5t142 75t153.5 22.5q73 0 139.5 -20.5t132 -71.5t113 -128t77 -199.5t29.5 -277.5q0 -143 -23 -260t-64 -194.5t-91 -133t-109 -85.5t-112 -43t-107 -13q-62 0 -120 15t-116.5 47t-106.5 89.5t-85.5 135.5t-58.5 192.5
t-21 253.5zM883 690q0 266 -83 400.5t-239 134.5q-144 0 -231.5 -126.5t-87.5 -391.5q0 -572 323 -572q52 0 97.5 18.5t86.5 60.5t70.5 105t46.5 158t17 213z" />
    <glyph glyph-name="one" unicode="1" 
d="M848 166v-166h-559v166h190v1028h-190v166h368v-1194h191z" />
    <glyph glyph-name="two" unicode="2" 
d="M115 0v184l465 478q112 113 162.5 191t50.5 173q0 79 -60 140t-162 61q-111 0 -177 -69t-75 -187h-194q12 180 131 301t303 121q102 0 184 -31t132.5 -83t77 -116t26.5 -135q0 -37 -5 -72t-20.5 -71t-26 -61t-40 -64t-42 -56.5t-53.5 -60t-52.5 -54.5t-59.5 -59l-14 -14
l-336 -328h504v240h165v-428h-884z" />
    <glyph glyph-name="three" unicode="3" 
d="M330 1024h-187q20 157 133.5 263t288.5 106q184 0 300 -96t116 -261q0 -115 -72.5 -192t-173.5 -105v-6q135 -28 215 -116t80 -234q0 -80 -28.5 -153.5t-83.5 -132.5t-144 -94.5t-201 -35.5q-212 0 -329.5 110.5t-139.5 291.5h189q19 -110 91 -173t189 -63
q119 0 195 74.5t76 189.5q0 119 -89 183.5t-272 64.5h-53v166h47q144 0 231 58.5t87 154.5q0 84 -56.5 143.5t-169.5 59.5q-109 0 -167.5 -55t-71.5 -148z" />
    <glyph glyph-name="four" unicode="4" 
d="M1016 166v-166h-518v166h170v194h-596v156l592 844h182v-834h227v-166h-227v-194h170zM668 1114h-4l-406 -588h410v588z" />
    <glyph glyph-name="five" unicode="5" 
d="M330 639h-168l65 721h734v-166h-568l-39 -379q32 32 95.5 59t150.5 27q92 0 167.5 -27.5t126 -73.5t85 -106.5t50 -124.5t15.5 -131q0 -208 -121.5 -339.5t-340.5 -131.5q-200 0 -325 111.5t-142 304.5h200q9 -121 82 -185.5t181 -64.5q132 0 204 79t72 224
q0 57 -16.5 109.5t-48.5 96t-86.5 69.5t-122.5 26q-159 0 -250 -98z" />
    <glyph glyph-name="six" unicode="6" 
d="M608 -33q-82 0 -155.5 22.5t-140 73t-114.5 126t-76 188t-28 252.5q0 393 125.5 578.5t386.5 185.5q46 0 95 -12t99 -39.5t92 -66t74 -96t46 -126.5h-172q-30 85 -93 129.5t-149 44.5q-76 0 -132 -26.5t-91 -71.5t-57.5 -115t-31.5 -145t-12 -173h5q38 81 120.5 139
t206.5 58q203 0 325 -129t122 -324q0 -123 -54 -230.5t-157.5 -175t-233.5 -67.5zM311 430q0 -126 84.5 -211.5t208.5 -85.5q111 0 184.5 80t73.5 217q0 134 -74.5 215.5t-197.5 81.5q-126 0 -202.5 -81t-76.5 -216z" />
    <glyph glyph-name="seven" unicode="7" 
d="M543 0h-205l510 1194h-553v-236h-166v402h924v-127z" />
    <glyph glyph-name="eight" unicode="8" 
d="M301 1022q0 -87 76 -148t184 -61t185 60.5t77 146.5q0 100 -69.5 153.5t-192.5 53.5q-122 0 -191 -53.5t-69 -151.5zM254 387q0 -114 84 -184t221 -70q141 0 226 70t85 184q0 117 -88 188.5t-223 71.5q-133 0 -219 -72.5t-86 -187.5zM750 737v-4q140 -38 220.5 -128.5
t80.5 -225.5q0 -183 -133 -297.5t-359 -114.5q-217 0 -350 115.5t-133 296.5q0 264 284 354v4q-111 32 -174 113.5t-63 196.5q0 152 116.5 249t321.5 97q207 0 323.5 -94t116.5 -255q0 -108 -64.5 -189.5t-186.5 -117.5z" />
    <glyph glyph-name="nine" unicode="9" 
d="M545 1393q240 0 368.5 -167t128.5 -489q0 -386 -120.5 -578t-384.5 -192q-95 0 -179.5 35t-148.5 112t-82 185h170q62 -166 254 -166q73 0 128.5 26.5t90.5 72.5t57 115t31 145t10 172h-6q-30 -81 -119.5 -139t-216.5 -58q-203 0 -318.5 133.5t-115.5 335.5q0 124 55 228
t159.5 166.5t238.5 62.5zM831 924q0 131 -76.5 217t-205.5 86q-123 0 -194.5 -83t-71.5 -220q0 -130 72.5 -210.5t203.5 -80.5q127 0 199.5 80.5t72.5 210.5z" />
    <glyph glyph-name="colon" unicode=":" horiz-adv-x="501" 
d="M141 643v219h219v-219h-219zM141 0v219h219v-219h-219z" />
    <glyph glyph-name="semicolon" unicode=";" horiz-adv-x="501" 
d="M141 0v217h219v-102q0 -216 -100 -387h-102q66 132 75 272h-92zM141 643v219h219v-219h-219z" />
    <glyph glyph-name="less" unicode="&#x3c;" horiz-adv-x="1376" 
d="M1300 -10l-1226 575v125l1226 580v-152l-1064 -489l1064 -488v-151z" />
    <glyph glyph-name="equal" unicode="=" horiz-adv-x="1376" 
d="M1298 317h-1218v146h1218v-146zM1298 803h-1218v145h1218v-145z" />
    <glyph glyph-name="greater" unicode="&#x3e;" horiz-adv-x="1376" 
d="M74 1270l1226 -576v-125l-1226 -579v151l1065 490l-1065 487v152z" />
    <glyph glyph-name="question" unicode="?" horiz-adv-x="978" 
d="M621 625q-62 -60 -85.5 -115.5t-23.5 -144.5h-147q2 110 35.5 196t125.5 164q168 143 168 283q0 108 -62 175.5t-179 67.5q-105 0 -177 -60t-81 -165h-160q14 159 126 265t294 106q189 0 296 -103.5t107 -263.5q0 -41 -8.5 -81t-19.5 -70t-33.5 -64t-37.5 -54t-46 -51
t-45 -43.5t-47 -41.5zM332 0v219h219v-219h-219z" />
    <glyph glyph-name="at" unicode="@" horiz-adv-x="1843" 
d="M1735 791q0 -128 -40.5 -247.5t-106 -204t-149.5 -135t-169 -50.5t-129.5 45.5t-44.5 113.5q0 30 4 54h-6q-60 -104 -143.5 -163t-176.5 -59q-126 0 -195 88.5t-69 229.5q0 144 66 280t177 221t234 85q92 0 145.5 -43t69.5 -103h6l31 109h211l-20 -105h-99l-100 -442
q-12 -49 -12 -107q0 -84 75 -84q50 0 106.5 40.5t105 108t80.5 166t32 202.5q0 240 -151 369.5t-418 129.5q-225 0 -407.5 -107t-284 -289t-101.5 -400q0 -299 181 -468t515 -169q108 0 212.5 24t172.5 64l41 -88q-79 -46 -197.5 -76.5t-242.5 -30.5q-375 0 -593 198
t-218 541q0 183 66.5 348t185 289.5t293.5 197.5t379 73q147 0 270 -37.5t216 -111t145.5 -190.5t52.5 -267zM807 274q76 0 145.5 52.5t114 128.5t70.5 155.5t26 139.5q0 88 -41.5 136t-124.5 48q-84 0 -162.5 -61.5t-129 -170t-50.5 -233.5q0 -90 39.5 -142.5t112.5 -52.5z
" />
    <glyph glyph-name="A" unicode="A" horiz-adv-x="1304" 
d="M477 0h-477v166h127l362 1028h-161v166h432l418 -1194h127v-166h-488v166h170l-94 283h-498l-90 -283h172v-166zM446 604h396l-199 590h-4z" />
    <glyph glyph-name="B" unicode="B" horiz-adv-x="1230" 
d="M90 0v166h170v1028h-170v166h557q206 0 325.5 -84.5t119.5 -249.5q0 -115 -66.5 -191.5t-171.5 -109.5v-4q151 -20 233 -114t82 -224q0 -182 -133 -282.5t-340 -100.5h-606zM977 391q0 116 -83 176t-218 60h-238v-461h258q137 0 209 59.5t72 165.5zM901 995
q0 104 -70.5 151.5t-246.5 47.5h-146v-412h191q128 0 200 56t72 157z" />
    <glyph glyph-name="C" unicode="C" horiz-adv-x="1523" 
d="M1321 913h-166v101q-70 96 -171.5 152.5t-219.5 56.5q-104 0 -196.5 -35.5t-163 -102t-111.5 -171t-41 -232.5q0 -152 64.5 -276.5t182 -196.5t265.5 -72q158 0 263.5 78.5t154.5 210.5h178q-69 -218 -224.5 -340.5t-385.5 -122.5q-153 1 -282.5 55.5t-218.5 149.5
t-138.5 228t-49.5 288q0 149 51 280.5t140 226.5t215.5 150.5t271.5 55.5q139 0 237 -45t179 -123v131h166v-447z" />
    <glyph glyph-name="D" unicode="D" horiz-adv-x="1458" 
d="M90 1360h567q177 0 319 -52.5t233 -144.5t139.5 -215t48.5 -266q0 -140 -49.5 -263t-141 -217t-233 -148t-314.5 -54h-569v166h170v1028h-170v166zM662 1194h-224v-1028h226q134 0 239 41t170.5 112t99 163t33.5 198q0 232 -140.5 373t-403.5 141z" />
    <glyph glyph-name="E" unicode="E" horiz-adv-x="1234" 
d="M90 0v166h170v1028h-170v166h1034v-354h-168v188h-518v-408h459v-165h-459v-455h518v229h168v-395h-1034z" />
    <glyph glyph-name="F" unicode="F" horiz-adv-x="1189" 
d="M958 1006v188h-520v-430h459v-166h-459v-432h191v-166h-539v166h170v1028h-170v166h1034v-354h-166z" />
    <glyph glyph-name="G" unicode="G" horiz-adv-x="1501" 
d="M1348 961h-164v98q-146 164 -412 164q-231 0 -375.5 -145.5t-144.5 -393.5q0 -162 71.5 -288t193 -192.5t271.5 -66.5q128 0 232 30t170 77v311h-430v166h608v-586q-245 -172 -588 -172q-173 0 -312 58.5t-226.5 158t-134 227.5t-46.5 271q0 202 81 364.5t238 258.5
t365 96q264 0 439 -131v94h164v-399z" />
    <glyph glyph-name="H" unicode="H" horiz-adv-x="1574" 
d="M1485 0h-518v166h170v455h-699v-455h170v-166h-518v166h170v1028h-170v166h518v-166h-170v-408h699v408h-170v166h518v-166h-170v-1028h170v-166z" />
    <glyph glyph-name="I" unicode="I" horiz-adv-x="698" 
d="M608 0h-518v166h170v1028h-170v166h518v-166h-170v-1028h170v-166z" />
    <glyph glyph-name="J" unicode="J" horiz-adv-x="641" 
d="M8 0v168q42 -12 111 -12q74 0 107.5 51.5t33.5 154.5v832h-170v166h518v-166h-170v-832q0 -183 -68.5 -281.5t-226.5 -98.5q-69 0 -135 18z" />
    <glyph glyph-name="K" unicode="K" horiz-adv-x="1390" 
d="M1391 0h-570v166h189l-396 498l-176 -179v-319h170v-166h-518v166h170v1028h-170v166h518v-166h-170v-508l496 508h-189v166h570v-166h-170l-418 -416l494 -612h170v-166z" />
    <glyph glyph-name="L" unicode="L" horiz-adv-x="1189" 
d="M649 1360v-166h-211v-1028h520v256h166v-422h-1034v166h170v1028h-170v166h559z" />
    <glyph glyph-name="M" unicode="M" horiz-adv-x="1771" 
d="M90 0v166h170v1028h-170v166h434l365 -1030h6l358 1030h428v-166h-170v-1028h170v-166h-526v166h191v1028h-9q-34 -128 -77 -250l-328 -944h-98l-338 948q-30 81 -74 248h-8v-1030h190v-166h-514z" />
    <glyph glyph-name="N" unicode="N" horiz-adv-x="1523" 
d="M422 1085h-6q8 -82 8 -303v-616h190v-166h-524v166h170v1028h-170v166h342l539 -799q16 -24 48.5 -70.5t49.5 -72t39.5 -61.5t38.5 -66h4q-10 92 -10 336v567h-191v166h525v-166h-170v-1194h-162l-430 633q-48 71 -102 154t-110.5 173.5t-78.5 124.5z" />
    <glyph glyph-name="O" unicode="O" horiz-adv-x="1523" 
d="M252 678q0 -234 145 -387.5t363 -153.5t365 154t147 387q0 152 -63.5 276t-181.5 196.5t-267 72.5q-216 0 -362 -155.5t-146 -389.5zM61 678q0 145 51.5 276.5t142 229t221.5 155.5t282 58q159 0 293 -58.5t223 -158t138.5 -229.5t49.5 -273q0 -148 -52.5 -280
t-144 -227.5t-222 -151.5t-279.5 -56q-140 0 -258 42.5t-198.5 113t-137.5 163.5t-83 193t-26 203z" />
    <glyph glyph-name="P" unicode="P" horiz-adv-x="1230" 
d="M688 496h-250v-330h191v-166h-539v166h170v1028h-170v166h578q103 0 185.5 -25t136.5 -66.5t90 -98.5t51.5 -118.5t15.5 -129.5q0 -83 -28 -157.5t-82.5 -135.5t-144.5 -97t-204 -36zM956 926q0 128 -72.5 198t-209.5 70h-236v-532h240q134 0 206 75.5t72 188.5z" />
    <glyph glyph-name="Q" unicode="Q" horiz-adv-x="1523" 
d="M61 678q0 145 51.5 276.5t142 229t221.5 155.5t282 58q159 0 293 -58.5t223 -158t138.5 -229.5t49.5 -273q0 -272 -174.5 -465.5t-447.5 -218.5v-4q200 -33 286 -33t144 27v-160q-50 -21 -144 -21q-83 0 -261.5 32t-274.5 32q-142 0 -234 -41v129q103 43 271 43v4
q-109 16 -201.5 61.5t-159 111t-113.5 147.5t-69.5 172t-22.5 184zM252 678q0 -234 145 -387.5t363 -153.5t365 154t147 387q0 152 -63.5 276t-181.5 196.5t-267 72.5q-216 0 -362 -155.5t-146 -389.5z" />
    <glyph glyph-name="R" unicode="R" horiz-adv-x="1267" 
d="M90 0v166h170v1028h-170v166h592q235 0 357 -99.5t122 -267.5q0 -138 -82.5 -223t-197.5 -100v-4q249 -42 249 -310v-190h156v-166h-334v317q0 131 -65 197t-203 66h-246v-414h170v-166h-518zM971 977q0 104 -74.5 160.5t-208.5 56.5h-250v-449h254q133 0 206 59.5
t73 172.5z" />
    <glyph glyph-name="S" unicode="S" horiz-adv-x="1097" 
d="M106 0v401h166v-102q142 -176 318 -176q115 0 181.5 63t66.5 152q0 90 -61.5 160t-213.5 118q-111 34 -185.5 69.5t-132 85t-84 116.5t-26.5 157q0 147 105 250t266 103q194 0 313 -123v86h164v-352h-164v73q-97 156 -270 156q-100 0 -166 -49.5t-66 -136.5
q0 -100 71.5 -153.5t246.5 -106.5q207 -64 295 -172t88 -269q0 -71 -25.5 -138.5t-74.5 -124t-130 -90.5t-182 -34t-190 43.5t-144 102.5v-109h-166z" />
    <glyph glyph-name="T" unicode="T" horiz-adv-x="1148" 
d="M485 166v1028h-292v-236h-164v402h1091v-402h-164v236h-292v-1028h190v-166h-559v166h190z" />
    <glyph glyph-name="U" unicode="U" horiz-adv-x="1435" 
d="M1386 1194h-169v-649q0 -124 -24 -222.5t-67.5 -165t-106 -111t-136.5 -64t-162 -19.5q-81 0 -152.5 18.5t-136.5 62t-111.5 108.5t-74 164.5t-27.5 224.5v653h-170v166h539v-166h-191v-664q0 -181 88 -287t246 -106q164 0 240 106t76 287v664h-191v166h530v-166z" />
    <glyph glyph-name="V" unicode="V" horiz-adv-x="1284" 
d="M788 1360h496v-166h-154l-397 -1194h-198l-388 1194h-147v166h504v-166h-164l301 -952h8l305 952h-166v166z" />
    <glyph glyph-name="W" unicode="W" horiz-adv-x="1937" 
d="M1448 1360h489v-166h-149l-322 -1194h-221l-264 1061h-6l-266 -1061h-222l-337 1194h-150v166h512v-166h-180l272 -995h6l258 995h-174v166h580v-166h-174l258 -995h6l258 995h-174v166z" />
    <glyph glyph-name="X" unicode="X" horiz-adv-x="1292" 
d="M1266 0h-531v166h185l-283 403l-277 -403h177v-166h-517v166h152l369 530l-344 498h-150v166h531v-166h-187l252 -387l260 387h-178v166h514v-166h-149l-349 -502l375 -526h150v-166z" />
    <glyph glyph-name="Y" unicode="Y" horiz-adv-x="1290" 
d="M905 0h-518v166h170v348l-407 680h-150v166h524v-166h-184l313 -530h4l312 530h-185v166h506v-166h-149l-406 -680v-348h170v-166z" />
    <glyph glyph-name="Z" unicode="Z" horiz-adv-x="1208" 
d="M158 985v375h944v-137l-768 -1057h614v240h166v-406h-997v133l764 1061h-557v-209h-166z" />
    <glyph glyph-name="bracketleft" unicode="[" horiz-adv-x="587" 
d="M551 1434v-125h-199v-1649h199v-125h-361v1899h361z" />
    <glyph glyph-name="backslash" unicode="\" horiz-adv-x="827" 
d="M690 -270l-670 1691h158l670 -1691h-158z" />
    <glyph glyph-name="bracketright" unicode="]" horiz-adv-x="587" 
d="M37 1309v125h360v-1899h-360v125h199v1649h-199z" />
    <glyph glyph-name="asciicircum" unicode="^" horiz-adv-x="1376" 
d="M223 600l400 760h125l401 -760h-152l-311 614l-311 -614h-152z" />
    <glyph glyph-name="underscore" unicode="_" horiz-adv-x="1024" 
d="M1024 -254h-1024v100h1024v-100z" />
    <glyph glyph-name="grave" unicode="`" horiz-adv-x="643" 
d="M-57 1362h247l316 -299h-156z" />
    <glyph glyph-name="a" unicode="a" horiz-adv-x="1079" 
d="M1040 145v-145h-264l-6 92h-4q-106 -125 -301 -125q-176 0 -280.5 96t-104.5 236q0 61 25 119t71.5 105.5t120.5 76.5t164 29q199 0 301 -88v55q0 122 -63.5 175.5t-213.5 53.5q-125 0 -247 -39l-31 142q134 43 299 43q121 0 203.5 -25.5t128 -76t64 -115.5t18.5 -156
v-453h120zM770 309q0 87 -76 138t-198 51q-120 0 -189 -57t-69 -138q0 -90 69.5 -141t186.5 -51q125 0 200.5 53t75.5 145z" />
    <glyph glyph-name="b" unicode="b" horiz-adv-x="1253" 
d="M49 1214v146h299v-565h4q129 176 373 176q193 0 322 -143.5t129 -362.5q0 -214 -130 -356t-329 -142q-129 0 -213 41.5t-152 120.5h-4l-10 -129h-289v145h141v1069h-141zM1012 467q0 98 -36.5 177.5t-114.5 130t-185 50.5q-135 0 -234.5 -99.5t-99.5 -256.5
q0 -161 94.5 -258.5t235.5 -97.5q84 0 150.5 30t107 80.5t61.5 113t21 130.5z" />
    <glyph glyph-name="c" unicode="c" horiz-adv-x="1107" 
d="M537 971q99 0 179 -34t126 -79v80h145v-342h-145v94q-50 61 -119 98t-148 37q-141 0 -237 -94t-96 -258q0 -159 91.5 -259.5t237.5 -100.5q107 0 174 50t93 134h170q-18 -67 -52.5 -124t-88 -104.5t-131.5 -74.5t-173 -27q-99 0 -187 35.5t-154.5 99t-105 160
t-38.5 211.5q0 135 53 247t159 181.5t247 69.5z" />
    <glyph glyph-name="d" unicode="d" horiz-adv-x="1241" 
d="M1206 145v-145h-288l-11 137h-6q-137 -170 -358 -170q-204 0 -334.5 140.5t-130.5 357.5q0 218 130.5 362t323.5 144q243 0 369 -174h6v417h-162v146h320v-1215h141zM242 467q0 -69 21 -131t61 -112.5t107 -80.5t151 -30q139 0 234 98t95 258q0 158 -98 257t-233 99
q-107 0 -185 -50.5t-115.5 -130.5t-37.5 -177z" />
    <glyph glyph-name="e" unicode="e" horiz-adv-x="1101" 
d="M555 971q204 0 336.5 -147t132.5 -367q0 -19 -2 -31h-778q6 -137 100.5 -225t226.5 -88q175 0 267 131h170q-57 -125 -166 -201t-271 -76q-215 0 -354 140.5t-139 363.5q0 213 133.5 356.5t343.5 143.5zM549 825q-128 0 -209 -78t-92 -188h606q-8 52 -30.5 98t-59 84.5
t-92 61t-123.5 22.5z" />
    <glyph glyph-name="f" unicode="f" horiz-adv-x="600" 
d="M561 145v-145h-491v145h141v648h-141v145h141v104q0 151 73 234.5t216 83.5h133v-146h-117q-66 0 -106.5 -45.5t-40.5 -130.5v-100h192v-145h-192v-648h192z" />
    <glyph glyph-name="g" unicode="g" horiz-adv-x="1239" 
d="M1190 938v-145h-121v-619q0 -543 -506 -543q-187 0 -358 50l33 137q157 -41 311 -41q103 0 176 27.5t112.5 79t56.5 113.5t17 142v17h-6q-133 -170 -346 -170t-347 130.5t-134 352.5q0 111 36 205t98 159t147.5 101.5t183.5 36.5q129 0 219.5 -51.5t140.5 -126.5h8
l11 145h268zM911 479q0 154 -98 250t-233 96q-161 0 -249.5 -101t-88.5 -251q0 -94 36 -169.5t115 -124t189 -48.5q141 0 235 95.5t94 252.5z" />
    <glyph glyph-name="h" unicode="h" horiz-adv-x="1239" 
d="M723 0v145h162v396q0 138 -66 211t-186 73q-128 0 -206.5 -83.5t-78.5 -235.5v-361h162v-145h-461v145h141v1069h-141v146h299v-555h4q55 75 137.5 120.5t186.5 45.5q164 0 265 -105.5t101 -316.5v-404h142v-145h-461z" />
    <glyph glyph-name="i" unicode="i" horiz-adv-x="544" 
d="M510 145v-145h-440v145h141v648h-141v145h299v-793h141zM188 1143v180h191v-180h-191z" />
    <glyph glyph-name="j" unicode="j" horiz-adv-x="544" 
d="M78 -336h-51v146h32q86 0 119 56.5t33 164.5v762h-141v145h299v-928q0 -162 -66.5 -254t-224.5 -92zM188 1143v180h191v-180h-191z" />
    <glyph glyph-name="k" unicode="k" horiz-adv-x="1110" 
d="M1102 0h-477v145h145l-250 320l-172 -164v-156h141v-145h-440v145h141v1069h-141v146h299v-883l336 316h-156v145h500v-145h-151l-248 -230l332 -418h141v-145z" />
    <glyph glyph-name="l" unicode="l" horiz-adv-x="524" 
d="M489 145v-145h-440v145h141v1069h-141v146h299v-1215h141z" />
    <glyph glyph-name="m" unicode="m" horiz-adv-x="1835" 
d="M684 0v145h162v392q0 143 -59.5 215.5t-165.5 72.5q-112 0 -182 -83.5t-70 -235.5v-361h161v-145h-460v145h141v648h-141v145h288l11 -133h4q108 166 295 166q101 0 175.5 -50.5t112.5 -136.5h7q113 187 319 187q161 0 258.5 -105.5t97.5 -316.5v-404h142v-145h-461v145
h162v410q0 124 -57.5 197t-176.5 73q-108 0 -175.5 -70.5t-67.5 -215.5v-394h161v-145h-481z" />
    <glyph glyph-name="n" unicode="n" horiz-adv-x="1263" 
d="M748 0v145h161v396q0 141 -67.5 212.5t-186.5 71.5q-128 0 -207 -84t-79 -235v-361h161v-145h-460v145h141v648h-141v145h288l11 -133h4q119 166 325 166q79 0 144.5 -25t116.5 -75t79.5 -132t28.5 -190v-404h141v-145h-460z" />
    <glyph glyph-name="o" unicode="o" horiz-adv-x="1157" 
d="M78 471q0 142 66 257t181 179t255 64q143 0 257.5 -65.5t178 -180t63.5 -254.5q0 -139 -64 -254.5t-178.5 -182.5t-256.5 -67q-214 0 -358 144.5t-144 359.5zM242 469q0 -155 99 -255.5t239 -100.5q147 0 241 100.5t94 255.5q0 152 -92.5 254t-242.5 102t-244 -100
t-94 -256z" />
    <glyph glyph-name="p" unicode="p" horiz-adv-x="1273" 
d="M70 793v145h288l11 -143h4q129 176 372 176q193 0 322 -143.5t129 -362.5q0 -214 -130 -356t-329 -142q-129 0 -212.5 41t-151.5 121h-4v-319h161v-146h-460v146h141v983h-141zM1032 467q0 98 -36.5 177.5t-114.5 130t-185 50.5q-135 0 -234.5 -99.5t-99.5 -256.5
q0 -161 94.5 -258.5t235.5 -97.5q84 0 150.5 30t107 80.5t61.5 113t21 130.5z" />
    <glyph glyph-name="q" unicode="q" horiz-adv-x="1284" 
d="M1206 -190v-146h-461v146h162v327h-6q-137 -170 -358 -170q-204 0 -334.5 140.5t-130.5 357.5q0 218 130.5 362t323.5 144q243 0 369 -174h6l11 141h288v-145h-141v-983h141zM242 467q0 -69 21 -131t61 -112.5t107 -80.5t151 -30q139 0 234 98t95 258q0 158 -98 257
t-233 99q-107 0 -185 -50.5t-115.5 -130.5t-37.5 -177z" />
    <glyph glyph-name="r" unicode="r" horiz-adv-x="800" 
d="M530 145v-145h-460v145h141v648h-141v145h288l11 -156h4q44 76 119.5 122t177.5 46q50 0 86 -10v-158q-50 13 -105 13q-79 0 -136 -29.5t-87.5 -80.5t-44.5 -108t-14 -122v-310h161z" />
    <glyph glyph-name="s" unicode="s" horiz-adv-x="839" 
d="M76 0v303h129v-84q39 -47 101 -83t138 -36q84 0 128 45t44 99q0 69 -45.5 102.5t-158.5 63.5q-167 43 -243.5 111.5t-76.5 191.5q0 110 80 184t199 74q131 0 229 -90v57h131v-258h-129v68q-25 34 -76 62t-127 28q-67 0 -109 -33t-42 -90q0 -62 51 -93.5t188 -68.5
q146 -38 215.5 -105t69.5 -184q0 -125 -84.5 -211t-220.5 -86q-83 0 -150.5 33.5t-111.5 77.5v-78h-129z" />
    <glyph glyph-name="t" unicode="t" horiz-adv-x="620" 
d="M0 793v145h150v299h157v-299h244v-145h-244v-471q0 -177 164 -177h80v-145h-121q-280 0 -280 309v484h-150z" />
    <glyph glyph-name="u" unicode="u" horiz-adv-x="1210" 
d="M707 793v145h299v-793h141v-145h-295l-10 129h-4q-49 -71 -129 -116.5t-185 -45.5q-156 0 -253 107t-97 313v406h-139v145h297v-537q0 -140 65 -214t178 -74q124 0 198.5 86t74.5 237v357h-141z" />
    <glyph glyph-name="v" unicode="v" horiz-adv-x="1024" 
d="M406 938v-145h-119l233 -582h4l226 582h-121v145h395v-145h-115l-321 -793h-144l-331 793h-113v145h406z" />
    <glyph glyph-name="w" unicode="w" horiz-adv-x="1515" 
d="M981 938v-145h-129l195 -596h4l200 596h-131v145h396v-145h-115l-287 -793h-143l-211 645h-4l-217 -645h-144l-282 793h-113v145h406v-145h-130l195 -596h4l201 596h-131v145h436z" />
    <glyph glyph-name="x" unicode="x" horiz-adv-x="1077" 
d="M1051 145v-145h-447v145h135l-202 236l-205 -236h131v-145h-436v145h120l299 336l-278 312h-121v145h451v-145h-136l181 -218l190 218h-131v145h436v-145h-120l-283 -314l295 -334h121z" />
    <glyph glyph-name="y" unicode="y" horiz-adv-x="1024" 
d="M199 -336h-76v146h74q83 0 128.5 38t86.5 127l22 50l-321 768h-113v145h406v-145h-119l233 -576h4l226 576h-121v145h395v-145h-115l-336 -828q-66 -160 -148.5 -230.5t-225.5 -70.5z" />
    <glyph glyph-name="z" unicode="z" horiz-adv-x="1011" 
d="M125 635v303h776v-141l-616 -652h475v177h145v-322h-819v141l616 652h-432v-158h-145z" />
    <glyph glyph-name="braceleft" unicode="{" horiz-adv-x="735" 
d="M674 1462v-110h-66q-73 0 -108 -49.5t-35 -131.5v-391q0 -122 -43 -193.5t-158 -99.5v-4q111 -20 156 -97t45 -202v-383q0 -88 35 -138t108 -50h66v-111h-90q-140 0 -207.5 86.5t-67.5 233.5v385q0 47 -12 86t-37 70.5t-68 49.5t-100 19v111q112 0 164.5 59t52.5 158v391
q0 142 67.5 226.5t207.5 84.5h90z" />
    <glyph glyph-name="bar" unicode="|" horiz-adv-x="735" 
d="M455 -549h-160v2269h160v-2269z" />
    <glyph glyph-name="braceright" unicode="}" horiz-adv-x="735" 
d="M61 1352v110h91q140 0 207 -84.5t67 -226.5v-391q0 -99 52.5 -158t164.5 -59v-111q-57 -1 -100 -19t-68 -49.5t-37 -70.5t-12 -86v-385q0 -148 -67 -234t-207 -86h-91v111h66q73 0 108 50t35 138v383q0 125 45 202t156 97v4q-115 28 -158 99.5t-43 193.5v391
q0 82 -35 131.5t-108 49.5h-66z" />
    <glyph glyph-name="asciitilde" unicode="~" horiz-adv-x="1376" 
d="M1315 719q-51 -118 -138.5 -183t-207.5 -65q-68 0 -148.5 25.5t-142 55.5t-134 55.5t-126.5 25.5q-79 0 -137.5 -44t-87.5 -116l-132 59q48 111 135.5 179.5t209.5 68.5q68 0 148 -25.5t141.5 -55.5t136.5 -55.5t133 -25.5q74 0 131.5 41t87.5 121z" />
    <glyph glyph-name="nbspace" unicode="&#xa0;" horiz-adv-x="526" 
 />
    <glyph glyph-name="exclamdown" unicode="&#xa1;" horiz-adv-x="501" 
d="M344 -426h-182v326l37 651h104l41 -651v-326zM360 936v-219h-217v219h217z" />
    <glyph glyph-name="cent" unicode="&#xa2;" 
d="M510 0v229q-168 24 -275.5 141t-107.5 296q0 168 102.5 291.5t280.5 146.5v256h127v-256q60 -10 109.5 -34.5t76.5 -51.5v72h146v-302h-146v62q-29 41 -78 70t-108 36v-585q144 14 190 141h170q-32 -116 -122.5 -196t-237.5 -91v-225h-127zM510 379v567
q-96 -25 -155.5 -97t-59.5 -183q0 -107 57.5 -184t157.5 -103z" />
    <glyph glyph-name="sterling" unicode="&#xa3;" 
d="M797 784v-166h-338q18 -98 18 -174q0 -164 -102 -241q14 2 49 2q73 0 170 -33q88 -31 147 -31q46 0 76 14t44 41.5t19 56.5t5 71h164q0 -82 -13.5 -143t-45.5 -111.5t-92.5 -76.5t-147.5 -26q-83 0 -205 39q-122 35 -240 35q-108 0 -207 -51v160q197 95 197 294
q0 82 -21 174h-176v166h140q-33 147 -33 238q0 164 99.5 270.5t287.5 106.5q151 0 256 -102t117 -273h-164q-21 201 -209 201q-98 0 -149.5 -61.5t-51.5 -162.5q0 -27 3.5 -57.5t6.5 -49t10.5 -57t10.5 -53.5h375z" />
    <glyph glyph-name="currency" unicode="&#xa4;" 
d="M893 469l139 -133l-94 -94l-137 137q-108 -78 -240 -78q-137 0 -237 78l-140 -137l-92 94l139 133q-77 115 -77 236q0 132 77 235l-139 135l92 94l140 -137q109 78 237 78q60 0 124.5 -20t113.5 -58l139 137l94 -94l-139 -135q76 -105 76 -235q0 -126 -76 -236zM838 707
q0 117 -83.5 194.5t-191.5 77.5q-117 0 -196.5 -80t-79.5 -192q0 -113 81 -195t193 -82q114 0 195.5 81.5t81.5 195.5z" />
    <glyph glyph-name="yen" unicode="&#xa5;" 
d="M156 731h243l-272 463h-127v166h500v-166h-164l235 -446h7l225 446h-162v166h485v-166h-127l-276 -463h248v-139h-320v-150h320v-139h-320v-137h170v-166h-518v166h170v137h-317v139h317v150h-317v139z" />
    <glyph glyph-name="brokenbar" unicode="&#xa6;" horiz-adv-x="735" 
d="M455 807h-160v913h160v-913zM455 -549h-160v920h160v-920z" />
    <glyph glyph-name="section" unicode="&#xa7;" horiz-adv-x="839" 
d="M823 694q0 -138 -100 -223q58 -46 79 -96t21 -115q0 -116 -81 -204.5t-226 -88.5q-81 0 -148 33t-112 78v-78h-129v303h129v-84q106 -119 240 -119q84 0 128 42t44 98q0 26 -5 43.5t-23 41.5t-62.5 44.5t-114.5 36.5q-76 19 -129.5 41.5t-99 56t-68.5 83.5t-23 115
q0 144 119 218q-119 73 -119 223q0 106 78 180t201 74q71 0 131 -26t98 -64v61h131v-258h-129v64q-71 90 -202 90q-74 0 -113 -34t-39 -85q0 -60 50.5 -93t189.5 -69q87 -22 145 -53t87.5 -70.5t40.5 -78t11 -87.5zM668 664q0 62 -32 97.5t-116 61.5q-36 11 -71.5 20
t-49.5 15q-102 -50 -102 -137q0 -58 39 -91t117 -57q141 -40 143 -41q72 54 72 132z" />
    <glyph glyph-name="dieresis" unicode="&#xa8;" horiz-adv-x="643" 
d="M59 1118v180h181v-180h-181zM416 1118v180h178v-180h-178z" />
    <glyph glyph-name="copyright" unicode="&#xa9;" horiz-adv-x="1615" 
d="M84 690q0 200 98 368t266 264.5t367 96.5q200 0 368 -96.5t265.5 -264t97.5 -368.5q0 -200 -97.5 -367t-265.5 -263.5t-368 -96.5q-199 0 -367 96.5t-266 264t-98 366.5zM203 690q0 -166 83 -307t224 -223t305 -82q166 0 308 82t224.5 223t82.5 307q0 124 -49 238
t-131.5 196t-196 130.5t-238.5 48.5q-164 0 -305 -82t-224 -223.5t-83 -307.5zM1026 780v58q-21 59 -73 96t-126 37q-104 0 -174.5 -75t-70.5 -204q0 -117 71 -196.5t187 -79.5q72 0 120.5 39.5t69.5 105.5h123q-33 -118 -117.5 -187t-208.5 -69q-172 0 -273 109t-101 284
q0 165 98.5 274t263.5 109q62 0 117.5 -23.5t93.5 -62.5v70h107v-285h-107z" />
    <glyph glyph-name="ordfeminine" unicode="&#xaa;" horiz-adv-x="778" 
d="M725 870v-98h-201l-6 62h-4q-74 -74 -195 -74q-111 0 -178 56.5t-67 141.5q0 88 68 146.5t192 58.5q112 0 182 -63v33q0 73 -36 98.5t-122 25.5q-106 0 -182 -24l-22 96q95 29 219 29q80 0 133 -15.5t80.5 -48t38 -72t10.5 -98.5v-254h90zM520 971q0 53 -41.5 78.5
t-107.5 25.5q-86 0 -133.5 -30t-47.5 -78q0 -45 46.5 -77t130.5 -32q73 0 113 29.5t40 83.5z" />
    <glyph glyph-name="guillemotleft" unicode="&#xab;" horiz-adv-x="862" 
d="M84 455l221 344h131l-176 -340l178 -340h-133zM408 455l221 344h133l-180 -340l182 -340h-135z" />
    <glyph glyph-name="logicalnot" unicode="&#xac;" horiz-adv-x="1376" 
d="M1298 707v-699h-139v553h-1079v146h1218z" />
    <glyph glyph-name="registered" unicode="&#xae;" horiz-adv-x="1169" 
d="M571 666h-198v69h55v371h-55v72h196q111 0 167.5 -41.5t56.5 -110.5q0 -53 -31.5 -93t-85.5 -50l108 -148h58v-69h-109l-145 198h-80v-129h63v-69zM711 1022q0 46 -31 65t-94 19h-76v-170h82q55 0 87 22.5t32 63.5zM102 909q0 99 38 188.5t103 154t154 102t187 37.5
q201 0 342 -140t141 -342q0 -199 -141 -339t-342 -140q-200 0 -341 140t-141 339zM180 909q0 -165 119.5 -284t284.5 -119q167 0 286 118.5t119 284.5q0 167 -119 286.5t-286 119.5q-165 0 -284.5 -119.5t-119.5 -286.5z" />
    <glyph glyph-name="degree" unicode="&#xb0;" horiz-adv-x="733" 
d="M651 1110q0 -118 -83.5 -201.5t-202.5 -83.5t-202 83.5t-83 201.5q0 120 83 203.5t202 83.5t202.5 -83.5t83.5 -203.5zM188 1110q0 -75 49 -129.5t128 -54.5q77 0 126.5 54.5t49.5 129.5q0 76 -49.5 131t-126.5 55q-79 0 -128 -55t-49 -131z" />
    <glyph glyph-name="plusminus" unicode="&#xb1;" horiz-adv-x="1376" 
d="M1298 739h-540v-501h-140v501h-538v146h538v501h140v-501h540v-146zM1298 0h-1218v145h1218v-145z" />
    <glyph glyph-name="twosuperior" unicode="&#xb2;" horiz-adv-x="667" 
d="M70 545v121l268 290q63 66 88 107t25 94q0 52 -27 82.5t-82 30.5q-113 0 -123 -146h-145q9 122 84 195.5t180 73.5q120 0 187 -64.5t67 -159.5q0 -75 -36.5 -144t-111.5 -144l-202 -205h233v137h127v-268h-532z" />
    <glyph glyph-name="threesuperior" unicode="&#xb3;" horiz-adv-x="667" 
d="M213 1153h-143q13 99 84.5 169.5t179.5 70.5q125 0 192.5 -64t67.5 -158q0 -69 -41 -115.5t-102 -62.5v-2q80 -20 126 -73t46 -140q0 -106 -75.5 -180t-215.5 -74q-130 0 -199 72.5t-82 185.5h139q15 -133 148 -133q67 0 103 42t36 100q0 66 -48.5 101.5t-143.5 35.5h-39
v116h37q74 0 120 30.5t46 86.5q0 51 -28.5 79t-82.5 28q-57 0 -87.5 -32.5t-37.5 -82.5z" />
    <glyph glyph-name="acute" unicode="&#xb4;" horiz-adv-x="643" 
d="M485 1362h246l-405 -299h-156z" />
    <glyph glyph-name="paragraph" unicode="&#xb6;" horiz-adv-x="1142" 
d="M344 -193h145v791q-188 0 -299.5 102.5t-111.5 272.5q0 192 109.5 289.5t310.5 97.5h571v-146h-145v-1407h145v-143h-291v1550h-143v-1550h-291v143z" />
    <glyph glyph-name="cedilla" unicode="&#xb8;" horiz-adv-x="643" 
d="M262 10h131l-55 -96q61 -4 102 -42t41 -91q0 -158 -225 -158h-111v107h84q101 0 101 61q0 53 -84 53h-70z" />
    <glyph glyph-name="onesuperior" unicode="&#xb9;" horiz-adv-x="667" 
d="M551 666v-121h-440v121h145v573h-145v121h292v-694h148z" />
    <glyph glyph-name="ordmasculine" unicode="&#xba;" horiz-adv-x="839" 
d="M72 1055q0 130 100 216.5t248 86.5q150 0 249 -86.5t99 -216.5t-99.5 -218.5t-248.5 -88.5t-248.5 87.5t-99.5 219.5zM209 1055q0 -86 61.5 -140.5t149.5 -54.5q93 0 151 55t58 140q0 80 -57.5 135t-151.5 55q-95 0 -153 -52.5t-58 -137.5z" />
    <glyph glyph-name="guillemotright" unicode="&#xbb;" horiz-adv-x="862" 
d="M776 463l-221 -344h-131l178 340l-180 340h133zM455 463l-222 -344h-133l181 340q-32 63 -97.5 182.5t-85.5 157.5h135z" />
    <glyph glyph-name="onequarter" unicode="&#xbc;" horiz-adv-x="1519" 
d="M1186 1360l-715 -1360h-147l712 1360h150zM539 666v-121h-441v121h146v573h-146v121h293v-694h148zM1438 113v-113h-336v113h108v114h-383v113l369 475h150v-475h124v-113h-124v-114h92zM1210 659h-6l-248 -319h254v319z" />
    <glyph glyph-name="onehalf" unicode="&#xbd;" horiz-adv-x="1531" 
d="M1182 1360l-715 -1360h-148l713 1360h150zM539 666v-121h-441v121h146v573h-146v121h293v-694h148zM932 0v121l268 291q63 66 88 106.5t25 93.5q0 52 -27 82.5t-82 30.5q-113 0 -123 -145h-145q9 122 84 195t180 73q120 0 187 -64t67 -159q0 -142 -147 -289l-203 -205
h233v137h127v-268h-532z" />
    <glyph glyph-name="threequarters" unicode="&#xbe;" horiz-adv-x="1538" 
d="M1212 1360l-714 -1360h-148l713 1360h149zM1456 115v-113h-336v113h109v114h-383v113l368 475h150v-475h125v-113h-125v-114h92zM1229 662h-6l-248 -320h254v320zM213 1153h-143q13 99 84.5 169.5t179.5 70.5q125 0 192.5 -64t67.5 -158q0 -69 -41 -115.5t-102 -62.5v-2
q80 -20 126 -73t46 -140q0 -106 -75.5 -180t-215.5 -74q-130 0 -199 72.5t-82 185.5h139q15 -133 148 -133q67 0 103 42t36 100q0 66 -48.5 101.5t-143.5 35.5h-39v116h37q74 0 120 30.5t46 86.5q0 51 -28.5 79t-82.5 28q-57 0 -87.5 -32.5t-37.5 -82.5z" />
    <glyph glyph-name="questiondown" unicode="&#xbf;" horiz-adv-x="978" 
d="M344 313q62 60 85.5 115.5t23.5 144.5h147q-2 -110 -36 -196t-126 -164q-168 -143 -168 -283q0 -108 61.5 -175.5t180.5 -67.5q105 0 177 60t81 165h160q-14 -159 -126 -265t-294 -106q-189 0 -296.5 104t-107.5 263q0 48 9 91.5t30.5 83t39 67t53 63t51.5 51t55 49.5z
M633 938v-219h-219v219h219z" />
    <glyph glyph-name="Agrave" unicode="&#xc0;" horiz-adv-x="1304" 
d="M477 0h-477v166h127l362 1028h-161v166h432l418 -1194h127v-166h-488v166h170l-94 283h-498l-90 -283h172v-166zM446 604h396l-199 590h-4zM233 1741h248l316 -299h-156z" />
    <glyph glyph-name="Aacute" unicode="&#xc1;" horiz-adv-x="1304" 
d="M477 0h-477v166h127l362 1028h-161v166h432l418 -1194h127v-166h-488v166h170l-94 283h-498l-90 -283h172v-166zM446 604h396l-199 590h-4zM739 1741h246l-405 -299h-156z" />
    <glyph glyph-name="Acircumflex" unicode="&#xc2;" horiz-adv-x="1304" 
d="M477 0h-477v166h127l362 1028h-161v166h432l418 -1194h127v-166h-488v166h170l-94 283h-498l-90 -283h172v-166zM446 604h396l-199 590h-4zM616 1761l336 -319h-166l-170 135l-167 -135h-168z" />
    <glyph glyph-name="Atilde" unicode="&#xc3;" horiz-adv-x="1304" 
d="M477 0h-477v166h127l362 1028h-161v166h432l418 -1194h127v-166h-488v166h170l-94 283h-498l-90 -283h172v-166zM446 604h396l-199 590h-4zM803 1692h131q0 -115 -44.5 -178.5t-127.5 -63.5q-16 0 -33 2.5t-28.5 5.5t-28.5 10.5t-24 11t-26 13.5t-24 12q-77 43 -113 43
q-65 0 -65 -96h-131q0 119 46 180.5t132 61.5q54 0 158 -56q77 -43 112 -43q66 0 66 97z" />
    <glyph glyph-name="Adieresis" unicode="&#xc4;" horiz-adv-x="1304" 
d="M477 0h-477v166h127l362 1028h-161v166h432l418 -1194h127v-166h-488v166h170l-94 283h-498l-90 -283h172v-166zM446 604h396l-199 590h-4zM358 1481v180h181v-180h-181zM715 1481v180h178v-180h-178z" />
    <glyph glyph-name="Aring" unicode="&#xc5;" horiz-adv-x="1304" 
d="M477 0h-477v166h127l362 1028h-161v166h432l418 -1194h127v-166h-488v166h170l-94 283h-498l-90 -283h172v-166zM446 604h396l-199 590h-4zM848 1616q0 -91 -64 -155t-159 -64t-158.5 63.5t-63.5 155.5t63.5 155.5t158.5 63.5t159 -64t64 -155zM739 1616q0 48 -31 83.5
t-83 35.5q-51 0 -83 -35.5t-32 -83.5t32 -83.5t83 -35.5q52 0 83 35.5t31 83.5z" />
    <glyph glyph-name="AE" unicode="&#xc6;" horiz-adv-x="1773" 
d="M735 0v166h170v385h-405l-185 -385h162v-166h-477v166h127l518 1028h-166v166h1184v-354h-168v188h-412v-408h353v-165h-353v-455h412v229h168v-395h-928zM569 696h336v498h-94z" />
    <glyph glyph-name="Ccedilla" unicode="&#xc7;" horiz-adv-x="1523" 
d="M1321 913h-166v101q-70 96 -171.5 152.5t-219.5 56.5q-104 0 -196.5 -35.5t-163 -102t-111.5 -171t-41 -232.5q0 -152 64.5 -276.5t182 -196.5t265.5 -72q158 0 263.5 78.5t154.5 210.5h178q-63 -196 -195.5 -315t-326.5 -142l-31 -55q61 -4 102 -42t41 -91
q0 -158 -225 -158h-111v107h84q101 0 101 61q0 53 -84 53h-70l62 121q-192 10 -339.5 105t-227 255t-79.5 359q0 149 51 280.5t140 226.5t215.5 150.5t271.5 55.5q139 0 237 -45t179 -123v131h166v-447z" />
    <glyph glyph-name="Egrave" unicode="&#xc8;" horiz-adv-x="1234" 
d="M90 0v166h170v1028h-170v166h1034v-354h-168v188h-518v-408h459v-165h-459v-455h518v229h168v-395h-1034zM203 1741h248l315 -299h-156z" />
    <glyph glyph-name="Eacute" unicode="&#xc9;" horiz-adv-x="1234" 
d="M90 0v166h170v1028h-170v166h1034v-354h-168v188h-518v-408h459v-165h-459v-455h518v229h168v-395h-1034zM705 1741h245l-405 -299h-156z" />
    <glyph glyph-name="Ecircumflex" unicode="&#xca;" horiz-adv-x="1234" 
d="M90 0v166h170v1028h-170v166h1034v-354h-168v188h-518v-408h459v-165h-459v-455h518v229h168v-395h-1034zM606 1761l336 -319h-166l-170 135l-168 -135h-168z" />
    <glyph glyph-name="Edieresis" unicode="&#xcb;" horiz-adv-x="1234" 
d="M90 0v166h170v1028h-170v166h1034v-354h-168v188h-518v-408h459v-165h-459v-455h518v229h168v-395h-1034zM393 1481v180h180v-180h-180zM750 1481v180h178v-180h-178z" />
    <glyph glyph-name="Igrave" unicode="&#xcc;" horiz-adv-x="698" 
d="M608 0h-518v166h170v1028h-170v166h518v-166h-170v-1028h170v-166zM-25 1741h248l316 -299h-156z" />
    <glyph glyph-name="Iacute" unicode="&#xcd;" horiz-adv-x="698" 
d="M608 0h-518v166h170v1028h-170v166h518v-166h-170v-1028h170v-166zM438 1741h246l-405 -299h-156z" />
    <glyph glyph-name="Icircumflex" unicode="&#xce;" horiz-adv-x="698" 
d="M608 0h-518v166h170v1028h-170v166h518v-166h-170v-1028h170v-166zM344 1761l336 -319h-166l-170 135l-168 -135h-168z" />
    <glyph glyph-name="Idieresis" unicode="&#xcf;" horiz-adv-x="698" 
d="M608 0h-518v166h170v1028h-170v166h518v-166h-170v-1028h170v-166zM80 1481v180h180v-180h-180zM436 1481v180h178v-180h-178z" />
    <glyph glyph-name="Eth" unicode="&#xd0;" horiz-adv-x="1458" 
d="M90 621v165h170v408h-170v166h567q177 0 319 -52.5t233 -144.5t139.5 -215t48.5 -266q0 -140 -49.5 -263t-141 -217t-233 -148t-314.5 -54h-569v166h170v455h-170zM662 1194h-224v-408h328v-165h-328v-455h226q134 0 239 41t170.5 112t99 163t33.5 198q0 232 -140.5 373
t-403.5 141z" />
    <glyph glyph-name="Ntilde" unicode="&#xd1;" horiz-adv-x="1523" 
d="M422 1085h-6q8 -82 8 -303v-616h190v-166h-524v166h170v1028h-170v166h342l539 -799q16 -24 48.5 -70.5t49.5 -72t39.5 -61.5t38.5 -66h4q-10 92 -10 336v567h-191v166h525v-166h-170v-1194h-162l-430 633q-48 71 -102 154t-110.5 173.5t-78.5 124.5zM973 1692h131
q0 -115 -44.5 -178.5t-127.5 -63.5q-16 0 -33 2.5t-28.5 5.5t-28.5 10.5t-24 11t-26 13.5t-24 12q-77 43 -113 43q-65 0 -65 -96h-131q0 119 46 180.5t132 61.5q54 0 158 -56q77 -43 112 -43q66 0 66 97z" />
    <glyph glyph-name="Ograve" unicode="&#xd2;" horiz-adv-x="1523" 
d="M252 678q0 -234 145 -387.5t363 -153.5t365 154t147 387q0 152 -63.5 276t-181.5 196.5t-267 72.5q-216 0 -362 -155.5t-146 -389.5zM61 678q0 145 51.5 276.5t142 229t221.5 155.5t282 58q159 0 293 -58.5t223 -158t138.5 -229.5t49.5 -273q0 -148 -52.5 -280
t-144 -227.5t-222 -151.5t-279.5 -56q-140 0 -258 42.5t-198.5 113t-137.5 163.5t-83 193t-26 203zM356 1784h248l316 -299h-156z" />
    <glyph glyph-name="Oacute" unicode="&#xd3;" horiz-adv-x="1523" 
d="M252 678q0 -234 145 -387.5t363 -153.5t365 154t147 387q0 152 -63.5 276t-181.5 196.5t-267 72.5q-216 0 -362 -155.5t-146 -389.5zM61 678q0 145 51.5 276.5t142 229t221.5 155.5t282 58q159 0 293 -58.5t223 -158t138.5 -229.5t49.5 -273q0 -148 -52.5 -280
t-144 -227.5t-222 -151.5t-279.5 -56q-140 0 -258 42.5t-198.5 113t-137.5 163.5t-83 193t-26 203zM909 1784h246l-405 -299h-156z" />
    <glyph glyph-name="Ocircumflex" unicode="&#xd4;" horiz-adv-x="1523" 
d="M252 678q0 -234 145 -387.5t363 -153.5t365 154t147 387q0 152 -63.5 276t-181.5 196.5t-267 72.5q-216 0 -362 -155.5t-146 -389.5zM61 678q0 145 51.5 276.5t142 229t221.5 155.5t282 58q159 0 293 -58.5t223 -158t138.5 -229.5t49.5 -273q0 -148 -52.5 -280
t-144 -227.5t-222 -151.5t-279.5 -56q-140 0 -258 42.5t-198.5 113t-137.5 163.5t-83 193t-26 203zM754 1804l336 -319h-166l-170 135l-168 -135h-168z" />
    <glyph glyph-name="Otilde" unicode="&#xd5;" horiz-adv-x="1523" 
d="M252 678q0 -234 145 -387.5t363 -153.5t365 154t147 387q0 152 -63.5 276t-181.5 196.5t-267 72.5q-216 0 -362 -155.5t-146 -389.5zM61 678q0 145 51.5 276.5t142 229t221.5 155.5t282 58q159 0 293 -58.5t223 -158t138.5 -229.5t49.5 -273q0 -148 -52.5 -280
t-144 -227.5t-222 -151.5t-279.5 -56q-140 0 -258 42.5t-198.5 113t-137.5 163.5t-83 193t-26 203zM954 1735h131q0 -115 -44.5 -178.5t-127.5 -63.5q-16 0 -32.5 2.5t-28.5 5.5t-28.5 10t-24 11t-25.5 13.5t-24 12.5q-77 43 -113 43q-66 0 -66 -96h-131q0 119 46 180.5
t132 61.5q54 0 158 -56q77 -43 113 -43q65 0 65 97z" />
    <glyph glyph-name="Odieresis" unicode="&#xd6;" horiz-adv-x="1523" 
d="M252 678q0 -234 145 -387.5t363 -153.5t365 154t147 387q0 152 -63.5 276t-181.5 196.5t-267 72.5q-216 0 -362 -155.5t-146 -389.5zM61 678q0 145 51.5 276.5t142 229t221.5 155.5t282 58q159 0 293 -58.5t223 -158t138.5 -229.5t49.5 -273q0 -148 -52.5 -280
t-144 -227.5t-222 -151.5t-279.5 -56q-140 0 -258 42.5t-198.5 113t-137.5 163.5t-83 193t-26 203zM496 1524v180h180v-180h-180zM852 1524v180h178v-180h-178z" />
    <glyph glyph-name="multiply" unicode="&#xd7;" horiz-adv-x="1376" 
d="M1229 1071l-441 -438l451 -451l-98 -98l-449 451l-440 -441l-105 105l441 438l-451 450l99 97l450 -449l438 441z" />
    <glyph glyph-name="Oslash" unicode="&#xd8;" horiz-adv-x="1523" 
d="M111 -57l161 211q-104 102 -157.5 240.5t-53.5 283.5t51.5 276.5t142 229t221.5 155.5t282 58q215 0 385 -109l98 129h176l-166 -215q101 -101 156 -237t55 -287q0 -148 -52.5 -280t-144 -227.5t-222 -151.5t-279.5 -56q-220 0 -383 103l-94 -123h-176zM252 678
q0 -235 125 -387l665 866q-100 66 -282 66q-143 0 -259 -69.5t-182.5 -194.5t-66.5 -281zM1272 678q0 227 -125 385l-662 -860q120 -66 275 -66q221 0 366.5 155.5t145.5 385.5z" />
    <glyph glyph-name="Ugrave" unicode="&#xd9;" horiz-adv-x="1435" 
d="M1386 1194h-169v-649q0 -124 -24 -222.5t-67.5 -165t-106 -111t-136.5 -64t-162 -19.5q-81 0 -152.5 18.5t-136.5 62t-111.5 108.5t-74 164.5t-27.5 224.5v653h-170v166h539v-166h-191v-664q0 -181 88 -287t246 -106q164 0 240 106t76 287v664h-191v166h530v-166z
M303 1741h248l315 -299h-155z" />
    <glyph glyph-name="Uacute" unicode="&#xda;" horiz-adv-x="1435" 
d="M1386 1194h-169v-649q0 -124 -24 -222.5t-67.5 -165t-106 -111t-136.5 -64t-162 -19.5q-81 0 -152.5 18.5t-136.5 62t-111.5 108.5t-74 164.5t-27.5 224.5v653h-170v166h539v-166h-191v-664q0 -181 88 -287t246 -106q164 0 240 106t76 287v664h-191v166h530v-166z
M909 1741h246l-405 -299h-156z" />
    <glyph glyph-name="Ucircumflex" unicode="&#xdb;" horiz-adv-x="1435" 
d="M1386 1194h-169v-649q0 -124 -24 -222.5t-67.5 -165t-106 -111t-136.5 -64t-162 -19.5q-81 0 -152.5 18.5t-136.5 62t-111.5 108.5t-74 164.5t-27.5 224.5v653h-170v166h539v-166h-191v-664q0 -181 88 -287t246 -106q164 0 240 106t76 287v664h-191v166h530v-166z
M713 1761l336 -319h-166l-170 135l-168 -135h-168z" />
    <glyph glyph-name="Udieresis" unicode="&#xdc;" horiz-adv-x="1435" 
d="M1386 1194h-169v-649q0 -124 -24 -222.5t-67.5 -165t-106 -111t-136.5 -64t-162 -19.5q-81 0 -152.5 18.5t-136.5 62t-111.5 108.5t-74 164.5t-27.5 224.5v653h-170v166h539v-166h-191v-664q0 -181 88 -287t246 -106q164 0 240 106t76 287v664h-191v166h530v-166z
M451 1497v180h180v-180h-180zM807 1497v180h178v-180h-178z" />
    <glyph glyph-name="Yacute" unicode="&#xdd;" horiz-adv-x="1290" 
d="M905 0h-518v166h170v348l-407 680h-150v166h524v-166h-184l313 -530h4l312 530h-185v166h506v-166h-149l-406 -680v-348h170v-166zM868 1741h246l-405 -299h-156z" />
    <glyph glyph-name="Thorn" unicode="&#xde;" horiz-adv-x="1230" 
d="M688 276h-250v-276h-348v166h170v1028h-170v166h348v-268h230q103 0 185.5 -23.5t136.5 -63t90 -93.5t51.5 -112t15.5 -122q0 -78 -28 -148.5t-82.5 -128t-144.5 -91.5t-204 -34zM956 682q0 116 -72.5 180t-209.5 64h-236v-484h240q134 0 206 68.5t72 171.5z" />
    <glyph glyph-name="germandbls" unicode="&#xdf;" horiz-adv-x="1087" 
d="M369 0h-299v145h141v648h-141v145h141v55q0 185 93 292.5t265 107.5q154 0 243 -87.5t89 -236.5q0 -90 -46.5 -170t-129.5 -115v-4q135 -29 210 -126t75 -244q0 -186 -111 -298t-307 -112h-82v145h82q125 0 189.5 78.5t64.5 194.5q0 132 -86 205t-250 73v144
q111 0 169 61.5t58 157.5q0 84 -44 136t-124 52q-91 0 -145.5 -63.5t-54.5 -190.5v-993z" />
    <glyph glyph-name="agrave" unicode="&#xe0;" horiz-adv-x="1079" 
d="M1040 145v-145h-264l-6 92h-4q-106 -125 -301 -125q-176 0 -280.5 96t-104.5 236q0 61 25 119t71.5 105.5t120.5 76.5t164 29q199 0 301 -88v55q0 122 -63.5 175.5t-213.5 53.5q-125 0 -247 -39l-31 142q134 43 299 43q121 0 203.5 -25.5t128 -76t64 -115.5t18.5 -156
v-453h120zM770 309q0 87 -76 138t-198 51q-120 0 -189 -57t-69 -138q0 -90 69.5 -141t186.5 -51q125 0 200.5 53t75.5 145zM131 1362h248l315 -299h-155z" />
    <glyph glyph-name="aacute" unicode="&#xe1;" horiz-adv-x="1079" 
d="M1040 145v-145h-264l-6 92h-4q-106 -125 -301 -125q-176 0 -280.5 96t-104.5 236q0 61 25 119t71.5 105.5t120.5 76.5t164 29q199 0 301 -88v55q0 122 -63.5 175.5t-213.5 53.5q-125 0 -247 -39l-31 142q134 43 299 43q121 0 203.5 -25.5t128 -76t64 -115.5t18.5 -156
v-453h120zM770 309q0 87 -76 138t-198 51q-120 0 -189 -57t-69 -138q0 -90 69.5 -141t186.5 -51q125 0 200.5 53t75.5 145zM659 1362h246l-405 -299h-156z" />
    <glyph glyph-name="acircumflex" unicode="&#xe2;" horiz-adv-x="1079" 
d="M1040 145v-145h-264l-6 92h-4q-106 -125 -301 -125q-176 0 -280.5 96t-104.5 236q0 61 25 119t71.5 105.5t120.5 76.5t164 29q199 0 301 -88v55q0 122 -63.5 175.5t-213.5 53.5q-125 0 -247 -39l-31 142q134 43 299 43q121 0 203.5 -25.5t128 -76t64 -115.5t18.5 -156
v-453h120zM770 309q0 87 -76 138t-198 51q-120 0 -189 -57t-69 -138q0 -90 69.5 -141t186.5 -51q125 0 200.5 53t75.5 145zM502 1382l336 -319h-166l-170 135l-168 -135h-168z" />
    <glyph glyph-name="atilde" unicode="&#xe3;" horiz-adv-x="1079" 
d="M1040 145v-145h-264l-6 92h-4q-106 -125 -301 -125q-176 0 -280.5 96t-104.5 236q0 61 25 119t71.5 105.5t120.5 76.5t164 29q199 0 301 -88v55q0 122 -63.5 175.5t-213.5 53.5q-125 0 -247 -39l-31 142q134 43 299 43q121 0 203.5 -25.5t128 -76t64 -115.5t18.5 -156
v-453h120zM770 309q0 87 -76 138t-198 51q-120 0 -189 -57t-69 -138q0 -90 69.5 -141t186.5 -51q125 0 200.5 53t75.5 145zM711 1321h131q0 -115 -44.5 -178.5t-127.5 -63.5q-19 0 -36.5 2.5t-38 10.5t-29 11.5t-33 16.5t-27.5 15q-77 43 -113 43q-65 0 -65 -97h-131
q0 119 46 180.5t132 61.5q55 0 157 -55q77 -43 113 -43q66 0 66 96z" />
    <glyph glyph-name="adieresis" unicode="&#xe4;" horiz-adv-x="1079" 
d="M1040 145v-145h-264l-6 92h-4q-106 -125 -301 -125q-176 0 -280.5 96t-104.5 236q0 61 25 119t71.5 105.5t120.5 76.5t164 29q199 0 301 -88v55q0 122 -63.5 175.5t-213.5 53.5q-125 0 -247 -39l-31 142q134 43 299 43q121 0 203.5 -25.5t128 -76t64 -115.5t18.5 -156
v-453h120zM770 309q0 87 -76 138t-198 51q-120 0 -189 -57t-69 -138q0 -90 69.5 -141t186.5 -51q125 0 200.5 53t75.5 145zM270 1118v180h181v-180h-181zM627 1118v180h178v-180h-178z" />
    <glyph glyph-name="aring" unicode="&#xe5;" horiz-adv-x="1079" 
d="M1040 145v-145h-264l-6 92h-4q-106 -125 -301 -125q-176 0 -280.5 96t-104.5 236q0 61 25 119t71.5 105.5t120.5 76.5t164 29q199 0 301 -88v55q0 122 -63.5 175.5t-213.5 53.5q-125 0 -247 -39l-31 142q134 43 299 43q121 0 203.5 -25.5t128 -76t64 -115.5t18.5 -156
v-453h120zM770 309q0 87 -76 138t-198 51q-120 0 -189 -57t-69 -138q0 -90 69.5 -141t186.5 -51q125 0 200.5 53t75.5 145zM729 1266q0 -91 -64 -155t-159 -64q-94 0 -157.5 63.5t-63.5 155.5t63.5 155.5t157.5 63.5q95 0 159 -64t64 -155zM621 1266q0 48 -31.5 83t-83.5 35
q-51 0 -83 -35t-32 -83t32 -83.5t83 -35.5q52 0 83.5 35.5t31.5 83.5z" />
    <glyph glyph-name="ae" unicode="&#xe6;" horiz-adv-x="1615" 
d="M1122 969q130 0 226.5 -74t143 -188.5t46.5 -249.5q0 -5 -1 -15.5t-1 -15.5h-686v-14q4 -128 85 -214.5t189 -86.5q80 0 133 34t95 99h172q-123 -279 -387 -279q-120 0 -213.5 57t-149.5 156h-4q-122 -213 -397 -213q-148 0 -243 78.5t-95 204.5q0 167 158 239t509 72v45
q0 97 -61.5 158t-183.5 61q-88 0 -138.5 -29t-80.5 -85h-168q38 123 137.5 191.5t236.5 68.5q140 0 224.5 -56.5t119.5 -142.5h7q46 93 129 146t198 53zM700 373v53q-272 0 -384.5 -35.5t-112.5 -130.5q0 -71 57.5 -110t151.5 -39q108 0 198 73t90 189zM1108 823
q-108 0 -179 -76t-79 -188h516q-13 110 -79 187t-179 77z" />
    <glyph glyph-name="ccedilla" unicode="&#xe7;" horiz-adv-x="1107" 
d="M537 971q99 0 179 -34t126 -79v80h145v-342h-145v94q-50 61 -119 98t-148 37q-141 0 -237 -94t-96 -258q0 -159 91.5 -259.5t237.5 -100.5q107 0 174 50t93 134h170q-34 -126 -126.5 -215.5t-242.5 -108.5l-33 -59q62 -5 103 -43t41 -90q0 -158 -226 -158h-110v107h84
q100 0 100 61q0 53 -84 53h-70l66 127q-187 18 -309.5 153t-122.5 349q0 135 53 247t159 181.5t247 69.5z" />
    <glyph glyph-name="egrave" unicode="&#xe8;" horiz-adv-x="1101" 
d="M555 971q204 0 336.5 -147t132.5 -367q0 -19 -2 -31h-778q6 -137 100.5 -225t226.5 -88q175 0 267 131h170q-57 -125 -166 -201t-271 -76q-215 0 -354 140.5t-139 363.5q0 213 133.5 356.5t343.5 143.5zM549 825q-128 0 -209 -78t-92 -188h606q-8 52 -30.5 98t-59 84.5
t-92 61t-123.5 22.5zM176 1362h248l315 -299h-155z" />
    <glyph glyph-name="eacute" unicode="&#xe9;" horiz-adv-x="1101" 
d="M555 971q204 0 336.5 -147t132.5 -367q0 -19 -2 -31h-778q6 -137 100.5 -225t226.5 -88q175 0 267 131h170q-57 -125 -166 -201t-271 -76q-215 0 -354 140.5t-139 363.5q0 213 133.5 356.5t343.5 143.5zM549 825q-128 0 -209 -78t-92 -188h606q-8 52 -30.5 98t-59 84.5
t-92 61t-123.5 22.5zM680 1362h246l-406 -299h-155z" />
    <glyph glyph-name="ecircumflex" unicode="&#xea;" horiz-adv-x="1101" 
d="M555 971q204 0 336.5 -147t132.5 -367q0 -19 -2 -31h-778q6 -137 100.5 -225t226.5 -88q175 0 267 131h170q-57 -125 -166 -201t-271 -76q-215 0 -354 140.5t-139 363.5q0 213 133.5 356.5t343.5 143.5zM549 825q-128 0 -209 -78t-92 -188h606q-8 52 -30.5 98t-59 84.5
t-92 61t-123.5 22.5zM545 1382l336 -319h-166l-170 135l-168 -135h-168z" />
    <glyph glyph-name="edieresis" unicode="&#xeb;" horiz-adv-x="1101" 
d="M555 971q204 0 336.5 -147t132.5 -367q0 -19 -2 -31h-778q6 -137 100.5 -225t226.5 -88q175 0 267 131h170q-57 -125 -166 -201t-271 -76q-215 0 -354 140.5t-139 363.5q0 213 133.5 356.5t343.5 143.5zM549 825q-128 0 -209 -78t-92 -188h606q-8 52 -30.5 98t-59 84.5
t-92 61t-123.5 22.5zM283 1118v180h180v-180h-180zM639 1118v180h178v-180h-178z" />
    <glyph glyph-name="igrave" unicode="&#xec;" horiz-adv-x="544" 
d="M510 145v-145h-440v145h141v648h-141v145h299v-793h141zM-117 1362h248l315 -299h-155z" />
    <glyph glyph-name="iacute" unicode="&#xed;" horiz-adv-x="544" 
d="M510 145v-145h-440v145h141v648h-141v145h299v-793h141zM387 1362h246l-406 -299h-155z" />
    <glyph glyph-name="icircumflex" unicode="&#xee;" horiz-adv-x="544" 
d="M510 145v-145h-440v145h141v648h-141v145h299v-793h141zM276 1382l336 -319h-166l-170 135l-167 -135h-168z" />
    <glyph glyph-name="idieresis" unicode="&#xef;" horiz-adv-x="544" 
d="M510 145v-145h-440v145h141v648h-141v145h299v-793h141zM16 1118v180h181v-180h-181zM373 1118v180h178v-180h-178z" />
    <glyph glyph-name="eth" unicode="&#xf0;" horiz-adv-x="1157" 
d="M78 459q0 138 65.5 250.5t177 174.5t244.5 62q105 0 192.5 -46.5t145.5 -123.5h4q-44 109 -133 206.5t-215 150.5l-266 -177l-66 101l195 129q-117 28 -201 33v143q177 -12 352 -74l168 111l66 -103l-109 -71q177 -98 279 -279t102 -438q0 -110 -33.5 -207.5t-95.5 -172
t-158 -118t-212 -43.5q-213 0 -357.5 142t-144.5 350zM242 457q0 -148 99.5 -246t238.5 -98q146 0 239.5 98t93.5 246q0 146 -91.5 245t-241.5 99t-244 -97t-94 -247z" />
    <glyph glyph-name="ntilde" unicode="&#xf1;" horiz-adv-x="1263" 
d="M748 0v145h161v396q0 141 -67.5 212.5t-186.5 71.5q-128 0 -207 -84t-79 -235v-361h161v-145h-460v145h141v648h-141v145h288l11 -133h4q119 166 325 166q79 0 144.5 -25t116.5 -75t79.5 -132t28.5 -190v-404h141v-145h-460zM813 1321h131q0 -115 -44.5 -178.5
t-127.5 -63.5q-19 0 -36.5 2.5t-38 10.5t-29 11.5t-33 16.5t-27.5 15q-77 43 -112 43q-66 0 -66 -97h-131q0 119 46 180.5t132 61.5q56 0 158 -55q77 -43 113 -43q65 0 65 96z" />
    <glyph glyph-name="ograve" unicode="&#xf2;" horiz-adv-x="1157" 
d="M78 471q0 142 66 257t181 179t255 64q143 0 257.5 -65.5t178 -180t63.5 -254.5q0 -139 -64 -254.5t-178.5 -182.5t-256.5 -67q-214 0 -358 144.5t-144 359.5zM242 469q0 -155 99 -255.5t239 -100.5q147 0 241 100.5t94 255.5q0 152 -92.5 254t-242.5 102t-244 -100
t-94 -256zM213 1362h248l315 -299h-155z" />
    <glyph glyph-name="oacute" unicode="&#xf3;" horiz-adv-x="1157" 
d="M78 471q0 142 66 257t181 179t255 64q143 0 257.5 -65.5t178 -180t63.5 -254.5q0 -139 -64 -254.5t-178.5 -182.5t-256.5 -67q-214 0 -358 144.5t-144 359.5zM242 469q0 -155 99 -255.5t239 -100.5q147 0 241 100.5t94 255.5q0 152 -92.5 254t-242.5 102t-244 -100
t-94 -256zM721 1362h246l-406 -299h-155z" />
    <glyph glyph-name="ocircumflex" unicode="&#xf4;" horiz-adv-x="1157" 
d="M78 471q0 142 66 257t181 179t255 64q143 0 257.5 -65.5t178 -180t63.5 -254.5q0 -139 -64 -254.5t-178.5 -182.5t-256.5 -67q-214 0 -358 144.5t-144 359.5zM242 469q0 -155 99 -255.5t239 -100.5q147 0 241 100.5t94 255.5q0 152 -92.5 254t-242.5 102t-244 -100
t-94 -256zM571 1382l336 -319h-166l-170 135l-168 -135h-167z" />
    <glyph glyph-name="otilde" unicode="&#xf5;" horiz-adv-x="1157" 
d="M78 471q0 142 66 257t181 179t255 64q143 0 257.5 -65.5t178 -180t63.5 -254.5q0 -139 -64 -254.5t-178.5 -182.5t-256.5 -67q-214 0 -358 144.5t-144 359.5zM242 469q0 -155 99 -255.5t239 -100.5q147 0 241 100.5t94 255.5q0 152 -92.5 254t-242.5 102t-244 -100
t-94 -256zM772 1321h131q0 -115 -44.5 -178.5t-127.5 -63.5q-19 0 -36.5 2.5t-38 10.5t-29 11.5t-33 16.5t-27.5 15q-77 43 -112 43q-66 0 -66 -97h-131q0 119 46 180.5t132 61.5q56 0 158 -55q77 -43 113 -43q65 0 65 96z" />
    <glyph glyph-name="odieresis" unicode="&#xf6;" horiz-adv-x="1157" 
d="M78 471q0 142 66 257t181 179t255 64q143 0 257.5 -65.5t178 -180t63.5 -254.5q0 -139 -64 -254.5t-178.5 -182.5t-256.5 -67q-214 0 -358 144.5t-144 359.5zM242 469q0 -155 99 -255.5t239 -100.5q147 0 241 100.5t94 255.5q0 152 -92.5 254t-242.5 102t-244 -100
t-94 -256zM311 1118v180h181v-180h-181zM668 1118v180h178v-180h-178z" />
    <glyph glyph-name="divide" unicode="&#xf7;" horiz-adv-x="1376" 
d="M590 119v196h194v-196h-194zM1298 561h-1218v148h1218v-148zM590 954v197h194v-197h-194z" />
    <glyph glyph-name="oslash" unicode="&#xf8;" horiz-adv-x="1157" 
d="M98 -63l131 167q-151 148 -151 367q0 215 144 356.5t358 141.5q142 0 264 -72l78 100h143l-131 -168q69 -66 107 -158.5t38 -199.5q0 -138 -64 -253.5t-178.5 -183t-256.5 -67.5q-141 0 -261 70l-77 -100h-144zM242 469q0 -152 80 -248l436 563q-66 39 -178 39
q-150 0 -244 -99t-94 -255zM915 469q0 148 -73 242l-434 -559q66 -39 172 -39q147 0 241 101.5t94 254.5z" />
    <glyph glyph-name="ugrave" unicode="&#xf9;" horiz-adv-x="1210" 
d="M707 793v145h299v-793h141v-145h-295l-10 129h-4q-49 -71 -129 -116.5t-185 -45.5q-156 0 -253 107t-97 313v406h-139v145h297v-537q0 -140 65 -214t178 -74q124 0 198.5 86t74.5 237v357h-141zM170 1362h248l315 -299h-155z" />
    <glyph glyph-name="uacute" unicode="&#xfa;" horiz-adv-x="1210" 
d="M707 793v145h299v-793h141v-145h-295l-10 129h-4q-49 -71 -129 -116.5t-185 -45.5q-156 0 -253 107t-97 313v406h-139v145h297v-537q0 -140 65 -214t178 -74q124 0 198.5 86t74.5 237v357h-141zM741 1362h246l-405 -299h-156z" />
    <glyph glyph-name="ucircumflex" unicode="&#xfb;" horiz-adv-x="1210" 
d="M707 793v145h299v-793h141v-145h-295l-10 129h-4q-49 -71 -129 -116.5t-185 -45.5q-156 0 -253 107t-97 313v406h-139v145h297v-537q0 -140 65 -214t178 -74q124 0 198.5 86t74.5 237v357h-141zM561 1382l336 -319h-166l-170 135l-168 -135h-168z" />
    <glyph glyph-name="udieresis" unicode="&#xfc;" horiz-adv-x="1210" 
d="M707 793v145h299v-793h141v-145h-295l-10 129h-4q-49 -71 -129 -116.5t-185 -45.5q-156 0 -253 107t-97 313v406h-139v145h297v-537q0 -140 65 -214t178 -74q124 0 198.5 86t74.5 237v357h-141zM305 1118v180h180v-180h-180zM662 1118v180h178v-180h-178z" />
    <glyph glyph-name="yacute" unicode="&#xfd;" horiz-adv-x="1024" 
d="M199 -336h-76v146h74q83 0 128.5 38t86.5 127l22 50l-321 768h-113v145h406v-145h-119l233 -576h4l226 576h-121v145h395v-145h-115l-336 -828q-66 -160 -148.5 -230.5t-225.5 -70.5zM696 1362h246l-405 -299h-156z" />
    <glyph glyph-name="thorn" unicode="&#xfe;" horiz-adv-x="1273" 
d="M70 1214v146h299v-565h4q129 176 372 176q193 0 322 -143.5t129 -362.5q0 -214 -130 -356t-329 -142q-129 0 -212.5 41t-151.5 121h-4v-319h161v-146h-460v146h141v1404h-141zM1032 467q0 98 -36.5 177.5t-114.5 130t-185 50.5q-135 0 -234.5 -99.5t-99.5 -256.5
q0 -161 94.5 -258.5t235.5 -97.5q84 0 150.5 30t107 80.5t61.5 113t21 130.5z" />
    <glyph glyph-name="ydieresis" unicode="&#xff;" horiz-adv-x="1024" 
d="M199 -336h-76v146h74q83 0 128.5 38t86.5 127l22 50l-321 768h-113v145h406v-145h-119l233 -576h4l226 576h-121v145h395v-145h-115l-336 -828q-66 -160 -148.5 -230.5t-225.5 -70.5zM248 1118v180h180v-180h-180zM604 1118v180h178v-180h-178z" />
    <glyph glyph-name="dotlessi" unicode="&#x131;" horiz-adv-x="544" 
d="M510 145v-145h-440v145h141v648h-141v145h299v-793h141z" />
    <glyph glyph-name="Lslash" unicode="&#x141;" horiz-adv-x="1189" 
d="M90 387v178l170 105v524h-170v166h559v-166h-211v-414l262 162v-178l-262 -162v-436h520v256h166v-422h-1034v166h170v326z" />
    <glyph glyph-name="lslash" unicode="&#x142;" horiz-adv-x="524" 
d="M49 459v164l141 84v507h-141v146h299v-559l141 86v-164l-141 -86v-492h141v-145h-440v145h141v398z" />
    <glyph glyph-name="OE" unicode="&#x152;" horiz-adv-x="1869" 
d="M1759 0h-950q-155 0 -282.5 40.5t-212.5 107t-143 155t-84 183t-26 192.5t27.5 193.5t87 184.5t145.5 156t213 107.5t279 40.5h946v-354h-168v188h-471v-408h412v-165h-412v-455h471v229h168v-395zM252 678q0 -231 152 -371.5t413 -140.5h125v1028h-133q-138 0 -246 -41
t-175 -112t-101.5 -163.5t-34.5 -199.5z" />
    <glyph glyph-name="oe" unicode="&#x153;" horiz-adv-x="1787" 
d="M1278 969q129 0 229 -70.5t151.5 -185t51.5 -250.5q0 -27 -2 -37h-719q4 -137 90 -225t205 -88q160 0 240 131h168q-52 -125 -150.5 -201t-245.5 -76q-130 0 -234 68t-149 190h-4q-47 -119 -150 -188.5t-233 -69.5q-190 0 -319 145t-129 359q0 217 129 357.5t321 140.5
q136 0 238 -71.5t141 -184.5h4q45 122 144.5 189t222.5 67zM244 469q0 -154 87.5 -255t211.5 -101q130 0 214.5 101.5t84.5 254.5q0 151 -82.5 252.5t-216.5 101.5q-133 0 -216 -99t-83 -255zM1264 823q-115 0 -189.5 -77t-83.5 -187h549q-13 109 -84.5 186.5t-191.5 77.5z
" />
    <glyph glyph-name="Scaron" unicode="&#x160;" horiz-adv-x="1097" 
d="M106 0v401h166v-102q142 -176 318 -176q115 0 181.5 63t66.5 152q0 90 -61.5 160t-213.5 118q-111 34 -185.5 69.5t-132 85t-84 116.5t-26.5 157q0 147 105 250t266 103q194 0 313 -123v86h164v-352h-164v73q-97 156 -270 156q-100 0 -166 -49.5t-66 -136.5
q0 -100 71.5 -153.5t246.5 -106.5q207 -64 295 -172t88 -269q0 -71 -25.5 -138.5t-74.5 -124t-130 -90.5t-182 -34t-190 43.5t-144 102.5v-109h-166zM559 1442l-336 321h168l168 -135l170 135h166z" />
    <glyph glyph-name="scaron" unicode="&#x161;" horiz-adv-x="839" 
d="M76 0v303h129v-84q39 -47 101 -83t138 -36q84 0 128 45t44 99q0 69 -45.5 102.5t-158.5 63.5q-167 43 -243.5 111.5t-76.5 191.5q0 110 80 184t199 74q131 0 229 -90v57h131v-258h-129v68q-25 34 -76 62t-127 28q-67 0 -109 -33t-42 -90q0 -62 51 -93.5t188 -68.5
q146 -38 215.5 -105t69.5 -184q0 -125 -84.5 -211t-220.5 -86q-83 0 -150.5 33.5t-111.5 77.5v-78h-129zM410 1063l-336 321h168l168 -135l170 135h165z" />
    <glyph glyph-name="Ydieresis" unicode="&#x178;" horiz-adv-x="1290" 
d="M905 0h-518v166h170v348l-407 680h-150v166h524v-166h-184l313 -530h4l312 530h-185v166h506v-166h-149l-406 -680v-348h170v-166zM389 1497v180h180v-180h-180zM745 1497v180h179v-180h-179z" />
    <glyph glyph-name="Zcaron" unicode="&#x17d;" horiz-adv-x="1208" 
d="M158 985v375h944v-137l-768 -1057h614v240h166v-406h-997v133l764 1061h-557v-209h-166zM621 1417l-336 322h168l168 -135l170 135h165z" />
    <glyph glyph-name="zcaron" unicode="&#x17e;" horiz-adv-x="1011" 
d="M125 635v303h776v-141l-616 -652h475v177h145v-322h-819v141l616 652h-432v-158h-145zM518 1038l-336 322h168l168 -135l170 135h166z" />
    <glyph glyph-name="florin" unicode="&#x192;" 
d="M86 -338q-89 0 -145 29l59 129q35 -13 80 -13q60 0 104 55.5t70 141.5l235 782h-145l43 150h145l39 139q99 316 359 316q111 0 194 -56l-67 -127q-47 37 -121 37q-138 0 -195 -194l-32 -115h172l-39 -150h-176l-242 -815q-91 -309 -338 -309z" />
    <glyph glyph-name="circumflex" unicode="&#x2c6;" horiz-adv-x="643" 
d="M322 1382l335 -319h-165l-170 135l-168 -135h-168z" />
    <glyph glyph-name="caron" unicode="&#x2c7;" horiz-adv-x="643" 
d="M322 1063l-336 321h168l168 -135l170 135h165z" />
    <glyph glyph-name="macron" unicode="&#x2c9;" horiz-adv-x="643" 
d="M25 1124v133h591v-133h-591z" />
    <glyph glyph-name="breve" unicode="&#x2d8;" horiz-adv-x="643" 
d="M473 1327h143q-19 -116 -99.5 -185t-194.5 -69q-112 0 -193.5 69t-101.5 185h141q11 -56 52.5 -91.5t101.5 -35.5q62 0 102.5 36t48.5 91z" />
    <glyph glyph-name="dotaccent" unicode="&#x2d9;" horiz-adv-x="643" 
d="M223 1118v187h197v-187h-197z" />
    <glyph glyph-name="ring" unicode="&#x2da;" horiz-adv-x="643" 
d="M543 1266q0 -91 -64.5 -155t-159.5 -64q-94 0 -157.5 63.5t-63.5 155.5t63.5 155.5t157.5 63.5q95 0 159.5 -64t64.5 -155zM434 1266q0 48 -31.5 83t-83.5 35q-51 0 -82.5 -35t-31.5 -83t31.5 -83.5t82.5 -35.5q52 0 83.5 35.5t31.5 83.5z" />
    <glyph glyph-name="ogonek" unicode="&#x2db;" horiz-adv-x="643" 
d="M393 -225h92v-111h-88q-254 0 -254 156q0 35 13.5 64t41.5 53t46 36t51 31h180q-34 -18 -46 -24.5t-40.5 -23t-40.5 -26.5t-28.5 -25.5t-22.5 -31t-6 -31.5q0 -67 102 -67z" />
    <glyph glyph-name="tilde" unicode="&#x2dc;" horiz-adv-x="643" 
d="M514 1321h131q0 -115 -44.5 -178.5t-127.5 -63.5q-19 0 -36.5 2.5t-38 10.5t-29 11.5t-33 16.5t-27.5 15q-77 43 -112 43q-66 0 -66 -97h-131q0 119 46 180.5t132 61.5q56 0 158 -55q77 -43 113 -43q65 0 65 96z" />
    <glyph glyph-name="hungarumlaut" unicode="&#x2dd;" horiz-adv-x="643" 
d="M287 1350h215l-281 -299h-127zM578 1350h215l-279 -299h-127z" />
    <glyph glyph-name="Delta" unicode="&#x394;" horiz-adv-x="1222" 
d="M1192 0h-1163l512 1399h147zM958 145l-315 924q-13 37 -29 94h-4q-7 -47 -24 -94l-326 -924h698z" />
    <glyph glyph-name="Omega" unicode="&#x3a9;" horiz-adv-x="1427" 
d="M1384 0h-561v256q102 39 174.5 122.5t104 176.5t31.5 188q0 100 -25 186.5t-74.5 154.5t-130 107.5t-184.5 39.5q-105 0 -186.5 -38t-132.5 -105t-77 -154.5t-26 -190.5q0 -98 37.5 -196.5t112 -179.5t171.5 -115v-252h-573v305h178v-139h217v10q-146 78 -240 233.5
t-94 358.5q0 200 81.5 344t219 214.5t314.5 70.5q176 0 314 -80.5t213 -220.5t75 -314q0 -78 -16.5 -157t-52 -162.5t-101 -158.5t-154.5 -126v-12h207v141h178v-307z" />
    <glyph glyph-name="mu" unicode="&#x3bc;" horiz-adv-x="1210" 
d="M332 -336h-158v1129h-139v145h297v-530q0 -140 65.5 -215.5t177.5 -75.5q124 0 198.5 85t74.5 236v355h-141v145h299v-793h141v-145h-295l-10 129h-4q-41 -71 -115.5 -114.5t-167.5 -43.5q-67 0 -130 22.5t-101 63.5l-5 -2q13 -114 13 -225v-166z" />
    <glyph glyph-name="pi" unicode="&#x3c0;" horiz-adv-x="1054" 
d="M1004 141l36 -125q-63 -34 -143 -34q-121 0 -179.5 78.5t-58.5 199.5v533h-280v-535q0 -156 -31 -258h-162q35 107 35 254v530q-40 -2 -92.5 -15.5t-87.5 -31.5l-43 137q41 25 117 44.5t170 19.5h743v-145h-211v-523q0 -143 107 -143q45 0 80 14z" />
    <glyph glyph-name="endash" unicode="&#x2013;" horiz-adv-x="1024" 
d="M131 463v162h762v-162h-762z" />
    <glyph glyph-name="emdash" unicode="&#x2014;" horiz-adv-x="2048" 
d="M131 463v162h1786v-162h-1786z" />
    <glyph glyph-name="quoteleft" unicode="&#x2018;" horiz-adv-x="458" 
d="M246 899h-178l69 207l135 293h105l-68 -305z" />
    <glyph glyph-name="quoteright" unicode="&#x2019;" horiz-adv-x="458" 
d="M215 1399h178l-69 -205l-136 -295h-106l68 307z" />
    <glyph glyph-name="quotesinglbase" unicode="&#x201a;" horiz-adv-x="458" 
d="M211 217h178l-70 -205l-135 -295h-106l67 308z" />
    <glyph glyph-name="quotedblleft" unicode="&#x201c;" horiz-adv-x="737" 
d="M524 899h-180l72 207l133 293h106l-67 -305zM250 899h-180l71 207l135 293h105l-66 -305z" />
    <glyph glyph-name="quotedblright" unicode="&#x201d;" horiz-adv-x="737" 
d="M213 1399h178l-69 -205l-136 -295h-104l68 307zM492 1399h176l-68 -205l-135 -295h-105l64 307z" />
    <glyph glyph-name="quotedblbase" unicode="&#x201e;" horiz-adv-x="737" 
d="M213 217h178l-69 -205l-136 -295h-104l68 308zM492 217h176l-68 -205l-135 -295h-105l64 308z" />
    <glyph glyph-name="dagger" unicode="&#x2020;" horiz-adv-x="1040" 
d="M430 524l31 361l-328 -31v166l328 -31l-31 410h180l-32 -410l329 31v-164l-332 29l37 -361l-41 -710h-104z" />
    <glyph glyph-name="daggerdbl" unicode="&#x2021;" horiz-adv-x="1040" 
d="M430 1399h180l-32 -346l329 30v-163l-329 28l32 -168l-32 -166l329 31v-164l-329 31l34 -188l-41 -510h-104l-39 510l33 186l-328 -31v166l328 -31l-33 166l33 166l-328 -28v163l328 -28z" />
    <glyph glyph-name="bullet" unicode="&#x2022;" horiz-adv-x="1218" 
d="M285 674q0 134 94 228.5t229 94.5t230.5 -94.5t95.5 -228.5q0 -135 -95.5 -229.5t-230.5 -94.5t-229 94.5t-94 229.5z" />
    <glyph glyph-name="ellipsis" unicode="&#x2026;" horiz-adv-x="1697" 
d="M174 0v219h219v-219h-219zM739 0v219h219v-219h-219zM1305 0v219h219v-219h-219z" />
    <glyph glyph-name="perthousand" unicode="&#x2030;" horiz-adv-x="2332" 
d="M35 1032q0 160 94.5 263.5t241.5 103.5q145 0 240.5 -98t95.5 -275q0 -168 -96.5 -268.5t-241.5 -100.5q-46 0 -90.5 11.5t-89.5 40t-78.5 70t-54.5 107t-21 146.5zM561 1026q0 117 -52 177.5t-142 60.5q-86 0 -136.5 -65.5t-50.5 -166.5q0 -109 52.5 -174t138.5 -65
q91 0 140.5 64.5t49.5 168.5zM1217 1389l-748 -1422h-147l745 1422h150zM844 330q0 160 94.5 263t241.5 103q145 0 240.5 -97.5t95.5 -274.5q0 -168 -96.5 -268.5t-241.5 -100.5q-46 0 -90.5 11.5t-89.5 40t-78.5 70t-54.5 107t-21 146.5zM1370 324q0 117 -52 177t-142 60
q-86 0 -136.5 -65t-50.5 -166q0 -109 53 -174.5t138 -65.5q91 0 140.5 65t49.5 169zM1626 330q0 160 94.5 263t241.5 103q145 0 240.5 -97.5t95.5 -274.5q0 -168 -96.5 -268.5t-241.5 -100.5q-46 0 -90.5 11.5t-89.5 40t-78.5 70t-54.5 107t-21 146.5zM2152 324
q0 117 -52 177t-142 60q-86 0 -136 -65t-50 -166q0 -109 52.5 -174.5t137.5 -65.5q91 0 140.5 65t49.5 169z" />
    <glyph glyph-name="guilsinglleft" unicode="&#x2039;" horiz-adv-x="538" 
d="M86 455l221 344h133l-178 -340l180 -340h-135z" />
    <glyph glyph-name="guilsinglright" unicode="&#x203a;" horiz-adv-x="538" 
d="M453 463l-222 -344h-133l183 340q-29 56 -92 170t-93 170h135z" />
    <glyph glyph-name="four.superior" unicode="&#x2074;" horiz-adv-x="724" 
d="M643 657v-112h-336v112h109v115h-383v113l368 475h150v-475h125v-113h-125v-115h92zM416 1204h-6l-248 -319h254v319z" />
    <glyph glyph-name="Euro" unicode="&#x20ac;" 
d="M43 762l33 156h141q15 76 41 143.5t70 129t100.5 106t135 70.5t171.5 26q188 0 314 -70v-276h-179v159q-78 19 -137 19q-262 0 -325 -307h419l-32 -156h-410q-6 -34 -6 -82q0 -38 4 -74h385l-33 -155h-332q34 -158 119.5 -237t255.5 -79q143 0 266 68v-166
q-119 -70 -294 -70q-104 0 -189 26.5t-142.5 71t-100.5 108t-67 131t-38 147.5h-182l32 155h127q-2 18 -2 78q0 53 2 78h-147z" />
    <glyph glyph-name="litre" unicode="&#x2113;" horiz-adv-x="911" 
d="M725 1180q0 -142 -70.5 -274.5t-218.5 -307.5v-322q0 -176 123 -176q81 0 162 88l55 -94q-118 -127 -258 -127q-106 0 -168 62q-78 78 -78 233v195l-118 -131l-62 84l180 196v430q0 174 67.5 265.5t188.5 91.5q51 0 90.5 -19t62 -51t33.5 -68t11 -75zM616 1161
q0 41 -19 70t-60 29q-101 0 -101 -203v-301q180 220 180 405z" />
    <glyph glyph-name="trademark" unicode="&#x2122;" horiz-adv-x="1517" 
d="M246 758v510h-131v-127h-92v219h559v-219h-93v127h-133v-510h93v-92h-293v92h90zM647 666v92h70v510h-70v92h221l172 -516h4l177 516h225v-92h-74v-510h74v-92h-262v92h78v317q0 39 6 162h-8q-24 -83 -50 -162l-137 -409h-76l-137 409q-28 83 -51 168h-6q4 -90 4 -168
v-317h78v-92h-238z" />
    <glyph glyph-name="Ohm" unicode="&#x2126;" horiz-adv-x="1427" 
d="M1384 0h-561v256q102 39 174.5 122.5t104 176.5t31.5 188q0 100 -25 186.5t-74.5 154.5t-130 107.5t-184.5 39.5q-105 0 -186.5 -38t-132.5 -105t-77 -154.5t-26 -190.5q0 -98 37.5 -196.5t112 -179.5t171.5 -115v-252h-573v305h178v-139h217v10q-146 78 -240 233.5
t-94 358.5q0 200 81.5 344t219 214.5t314.5 70.5q176 0 314 -80.5t213 -220.5t75 -314q0 -78 -16.5 -157t-52 -162.5t-101 -158.5t-154.5 -126v-12h207v141h178v-307z" />
    <glyph glyph-name="estimated" unicode="&#x212e;" horiz-adv-x="1331" 
d="M1262 600h-926v-432q138 -135 330 -135q289 0 458 280l58 -32q-66 -100 -133 -163.5t-164 -103t-219 -39.5q-174 0 -309 84.5t-206 226.5t-71 314q0 174 69.5 315t204.5 225.5t314 84.5q136 0 247.5 -49t185.5 -134t115.5 -198.5t45.5 -243.5zM997 659v371
q-65 65 -151 101t-180 36q-198 0 -330 -135v-373h661z" />
    <glyph glyph-name="partialdiff" unicode="&#x2202;" horiz-adv-x="1087" 
d="M1010 967q0 -177 -58 -398q-21 -81 -52 -157.5t-79.5 -156.5t-106 -139t-137 -96.5t-167.5 -37.5q-149 0 -240.5 93t-91.5 249q0 128 44 245.5t117 201.5t171.5 134.5t203.5 50.5q81 0 137 -32t83 -82h4q10 98 10 131q0 143 -61.5 211.5t-172.5 68.5q-100 0 -188 -55
q-10 20 -25.5 62t-23.5 59q42 30 115 55t137 25q179 0 280 -110.5t101 -321.5zM815 672q-18 64 -71 102.5t-136 38.5q-96 0 -181.5 -68t-136 -180.5t-50.5 -238.5q0 -94 50 -146.5t128 -52.5q132 0 235 142t162 403z" />
    <glyph glyph-name="product" unicode="&#x220f;" horiz-adv-x="1398" 
d="M188 -170v1364h-153v166h1329v-166h-154v-1364h154v-166h-487v166h155v1364h-665v-1364h157v-166h-489v166h153z" />
    <glyph glyph-name="summation" unicode="&#x2211;" horiz-adv-x="1234" 
d="M848 1006v186h-551l393 -631l-418 -731h648v229h165v-395h-1052v94l459 805l-437 697v100h959v-354h-166z" />
    <glyph glyph-name="minus" unicode="&#x2212;" horiz-adv-x="1050" 
d="M971 561h-891v146h891v-146z" />
    <glyph glyph-name="fraction" unicode="&#x2215;" horiz-adv-x="249" 
d="M559 1360l-715 -1360h-147l713 1360h149z" />
    <glyph glyph-name="periodcentered" unicode="&#x2219;" horiz-adv-x="501" 
d="M141 586v219h219v-219h-219z" />
    <glyph glyph-name="radical" unicode="&#x221a;" horiz-adv-x="1028" 
d="M862 1491h154l-387 -1516h-148l-260 674l-98 -53l-60 127l246 123l234 -633z" />
    <glyph glyph-name="infinity" unicode="&#x221e;" horiz-adv-x="1470" 
d="M1366 598q0 -134 -82 -223.5t-217 -89.5q-108 0 -192 56.5t-136 141.5h-4q-59 -86 -141.5 -142t-173.5 -56q-145 0 -228 86t-83 217q0 137 81 224t222 87q60 0 113.5 -18.5t93.5 -49.5t67.5 -62t50.5 -67h4q135 197 318 197q135 0 221 -82.5t86 -218.5zM1231 596
q0 80 -44 131t-128 51q-75 0 -136 -47.5t-120 -136.5q54 -91 119.5 -139.5t134.5 -48.5q86 0 130 53.5t44 136.5zM672 594q-47 80 -117 132t-137 52q-87 0 -130.5 -53.5t-43.5 -136.5q0 -82 49 -132t125 -50q137 0 254 188z" />
    <glyph glyph-name="integral" unicode="&#x222b;" horiz-adv-x="618" 
d="M653 1366l-41 -131q-29 18 -84 18q-147 0 -147 -194v-1079q0 -145 -76.5 -230.5t-212.5 -85.5q-79 0 -147 29l35 133q50 -16 92 -16q73 0 108 45t35 141v1089q0 143 77.5 228.5t213.5 85.5q41 0 84 -9.5t63 -23.5z" />
    <glyph glyph-name="approxequal" unicode="&#x2248;" horiz-adv-x="1376" 
d="M1313 907q-42 -82 -131 -135t-205 -53q-67 0 -150.5 24.5t-149.5 54.5t-147.5 54.5t-144.5 24.5q-67 0 -127 -42t-88 -98l-107 99q43 81 130.5 134.5t201.5 53.5q68 0 152.5 -24.5t151 -54.5t148 -54.5t144.5 -24.5q68 0 126 39t89 99zM1313 426q-42 -82 -131 -135
t-205 -53q-67 0 -150.5 24.5t-149 54t-145 54t-139.5 24.5q-74 0 -134 -41t-89 -98l-107 98q43 81 130.5 135t201.5 54q69 0 155 -24.5t154.5 -54.5t148 -54.5t136.5 -24.5q71 0 128.5 39t88.5 98z" />
    <glyph glyph-name="notequal" unicode="&#x2260;" horiz-adv-x="1376" 
d="M1298 803h-434l-196 -340h630v-146h-714l-181 -309h-157l180 309h-346v146h430l197 340h-627v145h711l180 314h159l-182 -314h350v-145z" />
    <glyph glyph-name="lessequal" unicode="&#x2264;" horiz-adv-x="1376" 
d="M1298 0h-1218v145h1218v-145zM1300 195l-1226 528v123l1226 534v-151l-1064 -443l1064 -440v-151z" />
    <glyph glyph-name="greaterequal" unicode="&#x2265;" horiz-adv-x="1376" 
d="M1296 0h-1218v145h1218v-145zM74 1380l1226 -528v-125l-1226 -532v151l1065 442l-1065 441v151z" />
    <glyph glyph-name="lozenge" unicode="&#x25ca;" horiz-adv-x="1032" 
d="M567 1395l379 -699l-379 -696h-106l-375 694l375 701h106zM514 205l262 493l-262 490l-262 -490z" />
    <glyph glyph-name="G.alt01" unicode="&#xe232;" horiz-adv-x="1378" 
d="M739 764h582v-631q-236 -166 -545 -166q-338 0 -536.5 191.5t-198.5 503.5q0 154 50.5 287t144 232t236.5 155.5t319 56.5q142 0 286 -52v68h219v-465h-219q-132 123 -291 123q-160 0 -256 -107t-96 -274q0 -196 101 -303t264 -107q99 0 166 33v197h-226v258z" />
    </font>
</defs>
</svg>
