<?xml version="1.0" encoding="utf-8"?>
<!-- Generator: Adobe Illustrator 26.2.1, SVG Export Plug-In . SVG Version: 6.00 Build 0)  -->
<svg version="1.1" id="Capa_1" xmlns="http://www.w3.org/2000/svg" xmlns:xlink="http://www.w3.org/1999/xlink" x="0px" y="0px"
	 viewBox="0 0 213 185" style="enable-background:new 0 0 213 185;" xml:space="preserve">
<style type="text/css">
	.st0{fill:none;stroke:#1F1F1F;stroke-width:8;stroke-miterlimit:10;}
	.st1{fill:#FFFFFF;stroke:#1F1F1F;stroke-width:8;stroke-miterlimit:10;}
</style>
<g>
	<path class="st0" d="M168.89,96.41c0,8.69-7.05,15.74-15.74,15.74h-5.62V64.93h5.62c8.69,0,15.74,7.05,15.74,15.74V96.41z"/>
	<path class="st0" d="M71.14,112.99H53.03v22.76h11.09c3.88,0,7.03-3.14,7.03-7.03V112.99z"/>
	<path class="st0" d="M5.65,94.05c0,3.57,2.89,6.46,6.47,6.46h4.16V75.96h-4.16c-3.57,0-6.47,2.89-6.47,6.46V94.05z"/>
	<path class="st1" d="M58.57,151.91c-0.01,4.86-3.97,8.79-8.84,8.77l-7.1-0.03c-4.86-0.02-8.79-3.98-8.77-8.84l0.26-65.07l24.71,0.1
		L58.57,151.91z"/>
	<path class="st0" d="M138.72,146.77l-57.97-28.16c-13.85-8.12-64.12,9.87-64.56-15.27c0,0,0-29.79,0-29.79
		c0-7.45,6.04-13.49,13.49-13.49h42.52c4.56,2.11,61.27-28.38,66.53-30.12V146.77z"/>
	<path class="st1" d="M71.92,60.06H29.67c-7.45,0-13.49,6.04-13.49,13.49v29.79c0,7.44,6.05,13.47,13.49,13.45l42.25-0.13V60.06z"/>
	<path class="st1" d="M155.77,147.04c0,3.1-2.52,5.62-5.62,5.62h-6c-3.11,0-5.62-2.52-5.62-5.62V29.94c0-3.1,2.52-5.62,5.62-5.62h6
		c3.1,0,5.62,2.52,5.62,5.62V147.04z"/>
	<g>
		<line class="st0" x1="181.63" y1="87.59" x2="209.35" y2="87.59"/>
		<line class="st0" x1="178.76" y1="102.74" x2="198.36" y2="122.33"/>
		<line class="st0" x1="178.76" y1="72.45" x2="198.36" y2="52.85"/>
	</g>
</g>
</svg>
