<?xml version="1.0" standalone="no"?>
<!DOCTYPE svg PUBLIC "-//W3C//DTD SVG 1.1//EN" "http://www.w3.org/Graphics/SVG/1.1/DTD/svg11.dtd" >
<svg xmlns="http://www.w3.org/2000/svg">
<metadata>Generated by IcoMoon</metadata>
<defs>
<font id="icomoon" horiz-adv-x="1024">
<font-face units-per-em="1024" ascent="960" descent="-64" />
<missing-glyph horiz-adv-x="1024" />
<glyph unicode="&#x20;" horiz-adv-x="512" d="" />
<glyph unicode="&#xe900;" glyph-name="menu" horiz-adv-x="2872" d="M2699.928 960h-2527.955c-228.94 0-229.652-356.050 0-356.050h2527.955c229.296 0 229.652 356.050 0 356.050zM2699.928 292.050h-1734.676c-229.296 0-229.652-356.050 0-356.050h1734.676c229.296 0 229.652 356.050 0 356.050z" />
<glyph unicode="&#xe901;" glyph-name="arrows" horiz-adv-x="824" d="M818.487 313.14l-383.619 628.006c-7.028 11.366-19.424 18.826-33.561 18.826s-26.533-7.46-33.464-18.658l-0.097-0.168-361.785-592.76c-25.916-42.826 41.012-81.894 67.122-38.874l328.224 537.754 301.66-494.086 48.592-79.238c25.916-42.632 93.103-3.628 66.928 39.198zM458.451 383.372c-7.028 11.366-19.424 18.826-33.561 18.826s-26.533-7.46-33.464-18.658l-0.097-0.168q-112.216-184.003-224.561-367.746c-25.916-42.826 41.077-81.894 67.122-39.263l191.065 312.675 204.606-334.638c25.916-42.567 93.362-3.563 67.187 39.263z" />
<glyph unicode="&#xe902;" glyph-name="left" horiz-adv-x="899" d="M449.289 714.276l-449.289-245.874 875.090-532.402 11.744 511.925 11.895 512.075-449.44-245.724z" />
<glyph unicode="&#xe903;" glyph-name="right" horiz-adv-x="899" d="M461.184 693.799l-437.545 266.201-11.895-512.075-11.744-511.925 898.729 491.448-437.545 266.351z" />
<glyph unicode="&#xe904;" glyph-name="user" d="M512 960c-283.031 0-512-228.969-512-512s228.969-512 512-512 512 228.969 512 512-228.969 512-512 512zM405.996 704.53c58.302 58.302 153.706 58.302 213.068 0 0 0 0 0 0 0 28.621-27.561 44.522-65.723 44.522-106.004 0-82.683-66.783-150.526-149.466-150.526 0 0-1.060 0-1.060 0-82.683 0-150.526 66.783-150.526 150.526 0 0 0 0 0 0-1.060 39.222 14.841 78.443 43.462 106.004zM746.269 152.248c-21.201-20.141-49.822-29.681-79.503-28.621h-301.052c-28.621-1.060-57.242 9.54-79.503 28.621-21.201 20.141-31.801 48.762-30.741 78.443 0 12.72 0 25.441 1.060 37.101 1.060 13.781 3.18 26.501 5.3 39.222 2.12 13.781 5.3 26.501 9.54 39.222s9.54 25.441 15.901 37.101c6.36 11.66 14.841 22.261 24.381 31.801 10.6 9.54 22.261 16.961 34.981 22.261 14.841 5.3 29.681 8.48 45.582 8.48 9.54-1.060 18.021-4.24 24.381-10.6l25.441-16.961c10.6-6.36 21.201-10.6 32.861-14.841 26.501-8.48 54.062-8.48 80.563 0 11.66 3.18 22.261 8.48 32.861 14.841l25.441 15.901c7.42 6.36 15.901 9.54 24.381 10.6 15.901 0 30.741-2.12 45.582-8.48 12.72-5.3 25.441-12.72 34.981-22.261s18.021-20.141 24.381-31.801c6.36-11.66 12.72-24.381 15.901-37.101 4.24-12.72 7.42-26.501 9.54-39.222s4.24-26.501 5.3-39.222c1.060-11.66 1.060-24.381 1.060-37.101 3.18-27.561-7.42-56.182-28.621-77.383z" />
<glyph unicode="&#xe905;" glyph-name="mail" horiz-adv-x="1517" d="M879.367 168.859c-66.531-66.531-175.006-66.531-241.537 0l-198.147 198.147-417.989-417.989c10.124-8.678 23.141-13.017 36.158-13.017h1401.492c13.017 0 26.034 4.339 36.158 13.017l-417.989 419.435-198.147-199.593zM757.876 233.944c14.463 0 28.927 5.785 40.497 15.91l697.13 697.13-1.446 1.446-2.893 1.446-1.446 1.446-2.893 1.446-1.446 1.446-2.893 1.446-1.446 1.446-2.893 1.446h-1.446l-1.446-1.446h-10.124c-1.446 0-2.893 0-4.339 0h-1402.938c-2.893 1.446-4.339 2.893-5.785 2.893h-5.785l-2.893-1.446h-1.446l-2.893-1.446h-1.446l-5.785-2.893-2.893-2.893h-2.893l-1.446-1.446-2.893-1.446v-1.446l697.13-697.13c10.124-10.124 24.588-17.356 39.051-15.91zM1158.508 448l358.689-357.243v715.932zM0 806.689v-718.825l360.136 360.136z" />
<glyph unicode="&#xe906;" glyph-name="home" horiz-adv-x="1013" d="M1011.728 570.035c0 10.908-5.454 21.816-13.635 28.634l-471.776 354.514c-12.272 9.545-29.997 9.545-42.269 0l-470.413-355.877c-8.181-6.818-13.635-17.726-13.635-28.634v-597.22c0-19.089 16.362-35.451 35.451-35.451h342.242v361.332c0 20.453 16.362 35.451 36.815 35.451h184.075c20.453 0 36.815-16.362 36.815-36.815v-359.968h342.242c20.453 0 36.815 16.362 36.815 36.815l-2.727 597.22z" />
<glyph unicode="&#xe907;" glyph-name="menu1" d="M128 384h768c23.552 0 42.667 19.115 42.667 42.667s-19.115 42.667-42.667 42.667h-768c-23.552 0-42.667-19.115-42.667-42.667s19.115-42.667 42.667-42.667zM128 640h768c23.552 0 42.667 19.115 42.667 42.667s-19.115 42.667-42.667 42.667h-768c-23.552 0-42.667-19.115-42.667-42.667s19.115-42.667 42.667-42.667zM128 128h768c23.552 0 42.667 19.115 42.667 42.667s-19.115 42.667-42.667 42.667h-768c-23.552 0-42.667-19.115-42.667-42.667s19.115-42.667 42.667-42.667z" />
<glyph unicode="&#xe908;" glyph-name="close" d="M512 533.197l-362.035 362.035-72.397-72.397 362.035-362.035-362.035-362.035 72.397-72.397 362.035 362.035 362.035-362.035 72.397 72.397-362.035 362.035 362.035 362.035-72.397 72.397-362.035-362.035z" />
<glyph unicode="&#xe909;" d="M512 960c-282.77 0-512-229.23-512-512s229.23-512 512-512c282.77 0 512 229.23 512 512v0c0 282.77-229.23 512-512 512v0zM662.092 664.841c0-0.003 0-0.006 0-0.009 0-4.422-3.48-8.032-7.851-8.239l-0.019-0.001h-65.327c-0.001 0-0.003 0-0.004 0-15.709 0-28.444-12.735-28.444-28.444 0-0.167 0.001-0.333 0.004-0.499v0.025-68.077h92.539c4.526-0.039 8.181-3.717 8.181-8.249 0-0.234-0.010-0.465-0.029-0.694l0.002 0.030-8.154-95.953c-0.354-4.209-3.857-7.49-8.127-7.49-0.010 0-0.019 0-0.029 0h-84.384v-318.673c-0.053-4.482-3.672-8.101-8.149-8.154h-117.006c-4.482 0.053-8.101 3.672-8.154 8.149v318.772h-58.216c-0.028 0-0.062-0.001-0.095-0.001-4.451 0-8.059 3.608-8.059 8.059 0 0.034 0 0.067 0.001 0.1v-0.005 96.047c0 4.503 3.651 8.154 8.154 8.154v0h58.216v92.539c0 64.513 52.298 116.812 116.812 116.812h110.27c4.503 0 8.154-3.651 8.154-8.154v0z" />
<glyph unicode="&#xe90a;" d="M654.222 769.043h-110.27c-64.513 0-116.812-52.298-116.812-116.812v0-92.539h-58.216c-4.503 0-8.154-3.651-8.154-8.154v0-96.047c0-0.028-0.001-0.062-0.001-0.095 0-4.451 3.608-8.059 8.059-8.059 0.034 0 0.067 0 0.1 0.001h58.211v-318.767c0.053-4.482 3.672-8.101 8.149-8.154h116.532c4.482 0.053 8.101 3.672 8.154 8.149v318.772h84.764c0.008 0 0.018 0 0.027 0 4.27 0 7.773 3.282 8.125 7.461l0.002 0.030 8.154 95.953c0.017 0.199 0.027 0.43 0.027 0.664 0 4.532-3.654 8.21-8.177 8.249h-92.923v68.456c-0.003 0.141-0.004 0.307-0.004 0.474 0 15.709 12.735 28.444 28.444 28.444 0.001 0 0.003 0 0.004 0h65.801c4.482 0.053 8.101 3.672 8.154 8.149v95.673c0 4.503-3.651 8.154-8.154 8.154v0z" />
<glyph unicode="&#xe90b;" d="M76.127 716.696l167.178 167.178c-68.345-42.737-124.44-98.832-165.917-165.021l-1.26-2.157z" />
<glyph unicode="&#xe90c;" d="M243.304 883.873l-167.178-167.178q-13.048-21.214-24.124-43.742l234.669 234.669q-22.153-10.607-43.367-23.748z" />
<glyph unicode="&#xe90d;" glyph-name="phone" horiz-adv-x="1015" d="M529.957 960c-25.818 0-46.748-20.93-46.748-46.748s20.93-46.748 46.748-46.748v0c216.114-0.253 391.241-175.38 391.494-391.47v-0.025c-0.047-0.787-0.074-1.707-0.074-2.633 0-25.818 20.93-46.748 46.748-46.748s46.748 20.93 46.748 46.748c0 0.926-0.027 1.846-0.080 2.759l0.006-0.126c-0.253 267.699-217.155 484.653-484.81 484.99h-0.032zM968.199 457.795c-9.508 0-17.215 7.707-17.215 17.215v0c-0.253 232.455-188.584 420.838-420.994 421.176h-0.033c-0.479-0.047-1.034-0.074-1.597-0.074-9.508 0-17.215 7.707-17.215 17.215s7.707 17.215 17.215 17.215c0.562 0 1.118-0.027 1.666-0.080l-0.070 0.005c251.377-0.338 455.056-204.069 455.309-455.433v-0.024c0 0 0 0 0-0.001 0-9.455-7.623-17.13-17.059-17.214h-0.008zM765.032 470.261c0-25.818 20.93-46.748 46.748-46.748s46.748 20.93 46.748 46.748v0c-0.422 184.074-149.655 333.151-333.748 333.319h-0.016c-25.818 0-46.748-20.93-46.748-46.748s20.93-46.748 46.748-46.748v0c132.473-0.168 239.847-107.386 240.269-239.783v-0.040zM507.548 756.981c0.084 9.444 7.759 17.067 17.214 17.067 0 0 0 0 0.001 0v0c167.799-0.168 303.81-136.023 304.232-303.746v-0.041c0-9.508-7.707-17.215-17.215-17.215s-17.215 7.707-17.215 17.215v0c-0.421 148.778-121 269.252-269.777 269.505h-0.024c-9.508 0-17.215 7.707-17.215 17.215v0zM845.913 299.297c-28.092 25.605-65.618 41.286-106.805 41.286-46.785 0-88.844-20.233-117.905-52.425l-0.124-0.14-29.681-32.946c-10.896-12.034-20.094-25.887-27.039-40.99l-0.416-1.009c-118.034 51.016-212.505 138.013-271.612 246.984l-1.455 2.931c22.166 9.441 40.929 22.969 56.124 39.784l0.122 0.137 29.681 32.946c25.54 28.137 41.176 65.671 41.176 106.856 0 46.794-20.184 88.874-52.321 118.008l-0.134 0.119-50.31 45.412c-28.147 25.581-65.709 41.242-106.929 41.242-46.755 0-88.804-20.15-117.936-52.241l-0.118-0.132-29.681-33.094c-4.048-4.451-7.899-9.291-11.421-14.377l-0.303-0.463c-33.243-29.681-59.362-94.386-44.522-174.228 68.963-342.515 351.638-602.212 700.385-635.67l3.207-0.249c7.569 0 14.841-1.039 22.558-1.039 0.944-0.015 2.058-0.024 3.174-0.024 38.829 0 75.171 10.652 106.262 29.192l-0.952-0.526c14.882 8.553 27.64 18.758 38.639 30.617l0.095 0.103 29.681 32.946c25.504 28.149 41.114 65.674 41.114 106.845 0 46.785-20.158 88.863-52.262 118.021l-0.131 0.118zM874.704 58.583l-29.681-32.946c-8.23-8.976-17.716-16.618-28.22-22.698l-0.571-0.305c-24.568-14.51-54.138-23.083-85.71-23.083-6.402 0-12.722 0.353-18.941 1.039l0.767-0.069c-332.622 31.634-599.743 277.332-663.471 596.429l-0.793 4.763c-13.060 67.228 11.279 116.647 30.868 133.565l2.078 2.078 1.336 1.484 1.632 2.226c3.087 4.315 6.155 8.089 9.432 11.667l-0.083-0.092 29.681 32.946c21.126 23.271 51.496 37.824 85.264 37.824 29.706 0 56.781-11.262 77.19-29.748l-0.097 0.087 50.458-45.561c23.188-21.143 37.681-51.479 37.681-85.2 0-29.727-11.263-56.823-29.755-77.254l0.088 0.099-29.681-32.946c-13.804-15.085-31.39-26.488-51.263-32.722l-0.827-0.224-9.053-2.671c-6.333-1.927-11.355-6.463-13.895-12.324l-0.055-0.142c-1.3-2.742-2.059-5.957-2.059-9.35s0.759-6.608 2.116-9.485l-0.058 0.136 4.304-8.459c66.922-132.615 177.661-234.943 312.82-289.441l4.027-1.434 7.866-3.117c2.583-1.126 5.593-1.781 8.756-1.781s6.173 0.655 8.901 1.837l-0.145-0.056c5.475 2.6 9.627 7.236 11.531 12.905l0.045 0.155 2.671 7.866c5.341 15.703 13.444 29.211 23.826 40.606l-0.081-0.091 29.681 32.946c21.149 23.543 51.692 38.283 85.678 38.283 29.791 0 56.936-11.326 77.365-29.908l-0.093 0.084 50.31-45.561c23.236-21.148 37.763-51.515 37.763-85.274 0-29.692-11.237-56.759-29.69-77.182l0.089 0.1z" />
<glyph unicode="&#xe90e;" glyph-name="funnel" horiz-adv-x="1142" d="M0 940.243l452.969-433.212v-413.455l236.243-157.576 39.394 551.394 413.576 472.606-1142.182-19.757z" />
<glyph unicode="&#xe90f;" glyph-name="people" horiz-adv-x="1543" d="M1413.657 431.444c-4.713 4.338-11.030 6.998-17.968 6.998-6.162 0-11.835-2.098-16.341-5.619l0.059 0.044c-1.613-1.233-159.582-119.829-306.545 0-4.57 3.718-10.462 5.969-16.88 5.969-6.73 0-12.882-2.476-17.594-6.567l0.033 0.028c-33.811-32.491-61.876-70.651-82.723-113.003l-1.053-2.366c-3.146 1.412-6.819 2.235-10.684 2.235-6.107 0-11.734-2.053-16.229-5.507l0.063 0.047c-6.452-4.934-160.341-119.354-306.64 0-4.525 3.69-10.364 5.925-16.724 5.925-2.906 0-5.704-0.467-8.322-1.329l0.188 0.054c-20.277 44.267-47.591 81.905-80.929 113.2l-0.191 0.177c-4.728 4.345-11.061 7.009-18.016 7.009-6.179 0-11.867-2.102-16.388-5.63l0.059 0.044c-1.613-1.233-159.487-119.829-306.545 0-4.55 3.728-10.429 5.988-16.835 5.988-6.717 0-12.854-2.484-17.542-6.583l0.031 0.027c-5.977-5.218-136.717-121.442-139.943-350.188-0.002-0.113-0.003-0.246-0.003-0.38 0-14.744 11.926-26.703 26.658-26.755h428.751c-5.173-27.463-8.395-59.326-8.913-91.847l-0.006-0.468c-0.003-0.141-0.004-0.308-0.004-0.475 0-14.672 11.894-26.565 26.565-26.565 0.035 0 0.070 0 0.105 0h591.454c0.004 0 0.009 0 0.014 0 14.424 0 26.172 11.454 26.645 25.763l0.001 0.043c0.020 1.775 0.032 3.872 0.032 5.971 0 30.884-2.496 61.186-7.296 90.713l0.433-3.231h431.782c0.031 0 0.069 0 0.106 0 14.405 0 26.132 11.465 26.554 25.768l0.001 0.039c0.759 9.393 6.262 226.090-129.222 350.473zM468.404 108.865h-413.945c9.488 143.643 75.332 233.775 105.313 267.741 139.753-97.533 282.352-29.886 333.585 0.949 25.428-27.992 46.14-60.83 60.525-96.878l0.765-2.173c-38.318-47.925-68.059-104.589-85.787-166.333l-0.835-3.4zM501.706-10.49c9.488 143.643 75.332 233.775 105.313 267.741 139.373-97.533 281.972-29.791 333.111 0.664 79.506-85.389 94.876-214.136 97.533-268.69zM1074.569 108.865c-15.22 64.387-42.891 120.763-80.517 168.992l0.726-0.966c17.304 38.196 38.589 71.087 63.988 100.305l-0.421-0.495c139.753-97.438 282.352-29.791 333.49 1.044 79.411-85.389 94.876-214.136 97.533-268.69zM322.579 454.309v0c0.165 0 0.36-0.001 0.554-0.001 69.629 0 132.632 28.368 178.082 74.178l0.016 0.016c6.591 6.463 12.795 13.238 18.622 20.334l0.354 0.444c19.411-121.75 123.401-213.768 248.991-214.325h0.059c127.846 0.151 233.455 95.163 250.233 218.424l0.146 1.309c46.52-61.205 119.35-100.332 201.32-100.379h0.008c139.643 0 252.845 113.203 252.845 252.845s-113.203 252.845-252.845 252.845v0c-127.886-0.102-233.546-95.13-250.328-218.424l-0.146-1.309c-46.492 61.253-119.346 100.404-201.345 100.404-69.802 0-132.978-28.37-178.626-74.209l-0.009-0.009c-6.562-6.453-12.764-13.196-18.616-20.239l-0.359-0.444c-19.425 121.949-123.843 214.040-249.768 214.040-139.59 0-252.75-113.16-252.75-252.75s113.16-252.75 252.75-252.75c0.286 0 0.572 0 0.857 0.001h-0.044zM1080.167 848.046c36.066 36.078 85.896 58.393 140.939 58.393 110.061 0 199.284-89.222 199.284-199.284 0-55.019-22.296-104.83-58.346-140.892l0.001 0.001c-35.827-36.155-85.498-58.539-140.396-58.539-0.141 0-0.282 0-0.422 0h0.022c-0.174-0.001-0.379-0.001-0.585-0.001-110.037 0-199.24 89.203-199.24 199.24 0 55.117 22.381 105.007 58.55 141.077l0.004 0.004zM628.271 728.786c36.026 35.881 85.718 58.064 140.591 58.064 110.037 0 199.24-89.203 199.24-199.24 0-109.865-88.924-198.961-198.724-199.24h-0.027c-0.145 0-0.318-0.001-0.49-0.001-110.037 0-199.24 89.203-199.24 199.24 0 55.164 22.419 105.092 58.642 141.17l0.007 0.007zM181.404 848.046c36.074 36.098 85.923 58.426 140.986 58.426 110.080 0 199.318-89.237 199.318-199.318 0-55.016-22.29-104.827-58.332-140.892l0.001 0.001c-35.856-36.156-85.552-58.539-140.475-58.539-0.113 0-0.226 0-0.339 0h0.017c-0.145 0-0.317-0.001-0.49-0.001-110.037 0-199.24 89.203-199.24 199.24 0 55.117 22.38 105.007 58.55 141.077l0.004 0.004z" />
<glyph unicode="&#xe910;" glyph-name="up" horiz-adv-x="1100" d="M196.93 80.201c0.69-0.062 1.492-0.097 2.302-0.097s1.612 0.035 2.405 0.104l-0.103-0.007c206.746 27.45 361.458 83.828 472.388 172.694 54.34 43.659 99.833 95.655 135.185 154.442l1.458 2.615c29.628 49.331 55.269 106.281 73.978 166.289l1.511 5.623 66.020-9.382c1.52-0.232 3.273-0.365 5.058-0.365 19.478 0 35.268 15.79 35.268 35.268 0 5.567-1.29 10.832-3.586 15.514l0.092-0.208-111.539 231.069c-5.868 11.875-17.896 19.898-31.797 19.898-8.812 0-16.872-3.224-23.063-8.557l0.046 0.039-194.932-168.176c-7.378-6.526-12.005-16.016-12.005-26.587 0-3.178 0.418-6.259 1.203-9.19l-0.056 0.248c3.183-13.164 13.545-23.265 26.616-26.020l0.227-0.040 58.549-12.422c-16.634-85.518-51.468-160.928-100.414-224.98l0.95 1.295c-79.137-104.415-187.114-166.613-263.905-200.318-28.974-13.255-64.285-26.246-100.657-36.735l-5.67-1.4c-13.725-3.822-24.497-6.428-31.186-7.992l-8.079-1.737h-1.824c-16.762-2.98-29.325-17.442-29.325-34.837 0-19.361 15.562-35.087 34.86-35.352h0.025zM355.464 161.336c81.135 35.703 195.54 101.636 279.976 213.087 55.687 73.073 94.793 161.707 110.067 258.27l0.429 3.29c0.159 0.964 0.25 2.075 0.25 3.207 0 9.938-7.012 18.239-16.359 20.224l-0.135 0.024-66.28 13.899 180.512 155.494 102.939-214.13-72.622 10.424h-2.954c-0.018 0-0.040 0-0.062 0-9.247 0-17.065-6.123-19.619-14.536l-0.038-0.145c-19.619-68.323-45.702-127.889-78.48-183.008l1.949 3.539c-34.135-57.099-76.366-105.445-125.789-145.217l-1.038-0.808c-86.868-69.494-202.75-118.054-352.945-147.676 18.242 6.168 38.569 14.854 60.2 24.062zM1071.517-6.841h-1014.445v938.261c0.028 0.471 0.043 1.021 0.043 1.575 0 15.784-12.796 28.58-28.58 28.58s-28.58-12.796-28.58-28.58c0-0.554 0.016-1.104 0.047-1.651l-0.003 0.076v-966.841c0-0.026 0-0.056 0-0.087 0-15.736 12.757-28.493 28.493-28.493 0.031 0 0.061 0 0.092 0h1042.932c15.784 0 28.58 12.796 28.58 28.58s-12.796 28.58-28.58 28.58v0z" />
<glyph unicode="&#xe911;" d="M287.047 907.997l-234.669-234.669c-5.632-11.452-10.701-23.185-15.488-35.013l285.169 285.169c-11.827-4.787-23.561-9.856-35.013-15.488z" />
<glyph unicode="&#xe912;" d="M322.059 923.486l-285.545-285.545c-4.036-10.138-7.791-20.369-11.17-30.789l327.504 327.504c-10.419-3.379-20.651-7.134-30.789-11.17z" />
<glyph unicode="&#xe913;" d="M352.848 934.656l-327.504-327.504c-3.004-9.387-5.82-18.773-8.26-28.16l363.642 363.924c-9.387-2.441-18.68-5.257-27.879-8.26z" />
<glyph unicode="&#xe914;" d="M380.726 942.916l-363.642-363.642c-2.253-8.448-4.318-16.99-6.101-25.626l395.37 395.37c-8.636-1.783-17.178-3.849-25.626-6.101z" />
<glyph unicode="&#xe915;" d="M430.382 953.429c-8.073-1.314-16.051-2.722-24.030-4.412l-395.37-395.37c-1.596-7.979-3.098-16.051-4.412-24.030s-2.253-15.019-3.098-22.622l449.531 449.531c-7.603-0.845-15.207-1.877-22.622-3.098z" />
<glyph unicode="&#xe916;" d="M453.004 956.527l-449.531-449.531c-0.845-6.946-1.408-14.268-1.971-21.496l472.998 472.998c-7.228-0.563-14.549-1.126-21.496-1.971z" />
<glyph unicode="&#xe917;" d="M474.5 958.498l-472.998-472.998c0-6.852-0.845-13.799-1.033-20.651l494.681 494.681c-7.040-0.188-13.799-0.563-20.651-1.033z" />
<glyph unicode="&#xe918;" d="M511.953 960c-5.632 0-11.17 0-16.802-0.469l-494.681-494.681c0-5.632 0-11.17 0-16.802 0-1.126 0-2.065 0-3.191l514.675 515.145z" />
<glyph unicode="&#xe919;" d="M515.145 960l-515.145-515.145c0-6.383 0-12.672 0-18.773l534.2 533.355c-6.383 0.563-12.672 0.563-19.055 0.563z" />
<glyph unicode="&#xe91a;" d="M534.2 959.437l-533.636-533.636c0-6.195 0.751-12.297 1.22-18.773l550.814 551.19c-6.101 0.469-12.203 0.939-18.398 1.22z" />
<glyph unicode="&#xe91b;" d="M552.598 958.217l-550.814-550.814c0-6.008 0.939-11.921 1.596-17.835l567.053 567.053c-5.914 0.657-11.827 1.126-17.835 1.596z" />
<glyph unicode="&#xe91c;" d="M211.296 594.574c21.36 26.486 47.966 47.837 78.338 62.669l1.355 0.598 296.809 296.527c-5.82 0.845-11.546 1.502-17.365 2.253l-567.053-567.053c0.751-5.82 1.408-11.64 2.253-17.365l176.377 176.377c8.597 17.521 18.35 32.617 29.625 46.422l-0.338-0.427z" />
<glyph unicode="&#xe91d;" d="M182.009 548.579l-176.377-176.377c0.845-5.632 1.877-11.17 2.91-16.708l161.077 161.077c3.834 12.575 8.041 23.181 12.984 33.364l-0.594-1.355z" />
<glyph unicode="&#xe91e;" d="M323.467 670.419l281.039 281.039c-5.538 1.033-11.076 2.065-16.708 2.91l-296.809-296.527c8.975 4.435 19.737 8.706 30.864 12.148l1.614 0.43z" />
<glyph unicode="&#xe91f;" d="M336.233 674.267c4.506 1.126 9.387 2.065 13.611 2.91l270.995 271.089c-5.35 1.22-10.701 2.347-16.333 3.191l-281.039-281.039c4.224 1.314 8.448 2.722 12.766 3.849z" />
<glyph unicode="&#xe920;" d="M169.618 516.57l-161.077-161.077c0.939-5.538 1.971-10.982 3.191-16.333l151.784 151.502c1.819 10.309 3.936 19.032 6.531 27.547l-0.43-1.639z" />
<glyph unicode="&#xe921;" d="M163.517 490.663l-151.784-151.502c1.126-5.35 2.347-10.701 3.661-15.957l145.119 145.119c0.657 7.697 1.69 15.207 3.004 22.34z" />
<glyph unicode="&#xe922;" d="M372.184 679.993l264.612 264.612c-5.257 1.314-10.607 2.534-15.957 3.661l-270.995-271.089c6.437 1.344 14.099 2.348 21.91 2.796l0.43 0.020z" />
<glyph unicode="&#xe923;" d="M159.575 461.47c0 2.347 0.469 4.506 0.751 6.852l-144.931-145.119c1.314-5.163 2.722-10.232 4.224-15.394l139.956 139.862c0 4.6 0 9.199 0 13.799z" />
<glyph unicode="&#xe924;" d="M374.625 680.181c6.008 0 11.921 0.563 17.929 0.657l259.637 259.543c-5.163 1.502-10.232 2.91-15.394 4.224l-264.612-264.612z" />
<glyph unicode="&#xe925;" d="M159.575 447.671l-139.956-139.862c1.408-4.975 2.816-10.044 4.412-15.113l136.108 136.108c-0.563 6.289-0.563 12.578-0.563 18.867z" />
<glyph unicode="&#xe926;" d="M396.965 680.838q7.322 0 14.643-0.563l255.695 255.695c-5.069 1.596-10.138 3.004-15.113 4.412l-259.637-259.543z" />
<glyph unicode="&#xe927;" d="M160.138 428.804l-136.108-136.108c1.596-4.881 3.285-9.387 4.975-14.549l133.292 133.292c-0.939 5.82-1.69 11.546-2.159 17.365z" />
<glyph unicode="&#xe928;" d="M429.162 678.398l252.691 252.597-14.549 4.975-255.695-255.695c5.914-0.469 11.733-1.126 17.553-1.877z" />
<glyph unicode="&#xe929;" d="M289.863 539.004l16.145 16.145c-5.828-5.040-11.105-10.317-15.981-15.951l-0.165-0.194z" />
<glyph unicode="&#xe92a;" d="M445.589 675.112l250.532 250.626-14.268 5.257-252.691-252.597c5.538-0.939 10.982-2.065 16.427-3.285z" />
<glyph unicode="&#xe92b;" d="M164.737 398.767c-0.939 4.224-1.69 8.448-2.441 12.672l-133.292-133.292c1.69-4.787 3.473-9.387 5.257-14.362l131.414 131.414c-0.282 1.596-0.657 2.347-0.939 3.567z" />
<glyph unicode="&#xe92c;" d="M306.008 555.15l-16.145-16.145c-11.158-12.964-20.092-28.219-25.979-44.912l-0.304-0.989 87.109 87.203c-17.202-5.867-32.058-14.429-44.876-25.318l0.195 0.162z" />
<glyph unicode="&#xe92d;" d="M350.689 580.306l-87.109-87.203c-1.401-3.754-2.882-8.645-4.109-13.637l-0.209-1.006c-0.74-3.016-1.432-6.843-1.917-10.734l-0.054-0.53 118.742 118.836c-9.511-1.218-18.079-3.225-26.29-6.004l0.946 0.278z" />
<glyph unicode="&#xe92e;" d="M460.983 670.982l249.218 249.218c-4.6 1.971-9.387 3.755-14.080 5.538l-250.532-250.626c4.975-1.22 10.325-2.534 15.394-4.13z" />
<glyph unicode="&#xe92f;" d="M165.676 395.2l-131.414-131.414c1.783-4.693 3.567-9.387 5.538-13.986l130.006 130.006c-1.502 5.069-2.91 10.232-4.13 15.394z" />
<glyph unicode="&#xe930;" d="M169.806 379.805l-130.006-130.006c1.971-4.6 4.036-9.387 6.101-13.517l129.068 129.068c-1.877 4.787-3.567 9.574-5.163 14.456z" />
<glyph unicode="&#xe931;" d="M475.532 666.007l248.186 248.092c-4.506 2.065-8.917 4.13-13.517 6.101l-249.218-249.218c4.881-1.971 9.762-3.191 14.549-4.975z" />
<glyph unicode="&#xe932;" d="M376.033 586.032l-118.742-118.836c-0.86-5.374-1.351-11.571-1.351-17.882 0-1.040 0.013-2.076 0.040-3.11l-0.003 0.153 140.801 140.801c-0.9 0.021-1.961 0.034-3.024 0.034-6.248 0-12.398-0.422-18.422-1.238l0.702 0.078z" />
<glyph unicode="&#xe933;" d="M489.331 659.624l247.716 248.279c-4.412 2.159-8.824 4.224-13.329 6.195l-248.186-248.092q6.946-2.722 13.799-6.383z" />
<glyph unicode="&#xe934;" d="M413.017 585.657c-4.657 0.734-10.167 1.24-15.763 1.404l-0.194 0.004-140.801-140.801c0-3.379 0-6.758 0.469-10.044s0.657-5.35 1.033-7.979l156.759 157.040z" />
<glyph unicode="&#xe935;" d="M174.969 365.35l-129.068-129.068c1.971-4.506 4.036-9.387 6.195-13.329l128.505 128.505c-2.253 4.6-3.942 9.199-5.632 13.892z" />
<glyph unicode="&#xe936;" d="M180.601 351.457l-128.505-128.505c2.159-4.412 4.318-8.636 6.571-12.954l128.223 128.223c-2.253 4.318-4.224 8.824-6.289 13.235z" />
<glyph unicode="&#xe937;" d="M502.285 653.617l247.716 247.716-12.954 6.571-247.716-248.279c4.318-1.502 8.636-3.755 12.954-6.008z" />
<glyph unicode="&#xe938;" d="M414.519 585.281l-157.040-156.946c0.995-6.429 2.172-11.885 3.63-17.225l-0.251 1.080 169.618 169.525c-4.355 1.348-9.739 2.59-15.244 3.473l-0.714 0.094z" />
<glyph unicode="&#xe939;" d="M430.476 581.714l-169.618-169.525c1.667-6.067 3.333-10.969 5.237-15.751l-0.356 1.014 179.099 179.099c-3.865 1.751-8.633 3.509-13.534 4.954l-0.827 0.209z" />
<glyph unicode="&#xe93a;" d="M186.89 338.222l-128.223-128.223c2.253-4.224 4.6-8.448 6.946-12.672l128.598 128.598c-2.534 4.036-5.069 8.073-7.322 12.297z" />
<glyph unicode="&#xe93b;" d="M507.447 650.801l7.228-4.412 247.998 247.904-12.672 7.040-247.716-247.716c1.69-0.939 3.473-1.783 5.163-2.816z" />
<glyph unicode="&#xe93c;" d="M444.838 576.551l-179.099-179.099c2.303-5.512 4.473-9.955 6.856-14.264l-0.379 0.747 185.858 185.951c-3.635 2.181-7.982 4.41-12.474 6.369l-0.761 0.296z" />
<glyph unicode="&#xe93d;" d="M194.212 325.925l-128.505-128.598c2.347-4.13 4.693-8.354 7.134-12.391l129.162 129.162c-2.722 3.849-4.881 7.603-7.791 11.827z" />
<glyph unicode="&#xe93e;" d="M526.315 638.504l248.749 248.749c-4.036 2.441-8.26 4.787-12.391 7.134l-247.998-247.998c4.318-2.722 8.166-5.538 11.64-7.885z" />
<glyph unicode="&#xe93f;" d="M537.391 629.962l249.687 249.687c-3.942 2.628-7.885 5.163-12.015 7.603l-248.749-248.749c4.224-3.098 7.885-6.008 11.076-8.542z" />
<glyph unicode="&#xe940;" d="M457.698 569.887l-185.482-185.951c2.496-4.846 4.895-8.869 7.507-12.736l-0.28 0.439 112.641 112.641v6.383c-0.041 0.548-0.065 1.186-0.065 1.83s0.023 1.283 0.069 1.915l-0.005-0.085h10.138l67.115 67.678c-3.661 2.722-7.509 5.35-11.64 7.885z" />
<glyph unicode="&#xe941;" d="M202.003 314.098l-129.255-129.162c2.441-4.13 4.975-8.073 7.603-12.015l129.913 130.006c-2.91 3.567-5.632 7.416-8.26 11.17z" />
<glyph unicode="&#xe942;" d="M210.263 302.928l-129.913-130.006c2.534-4.036 4.975-8.073 7.603-11.921l131.414 131.414c-3.473 3.379-6.195 6.852-9.105 10.513z" />
<glyph unicode="&#xe943;" d="M287.234 360.187l104.474 104.568v19.524l-112.641-112.641c2.838-4.413 5.526-8.147 8.386-11.738l-0.22 0.286z" />
<glyph unicode="&#xe944;" d="M402.128 494.699h19.618l58.479 58.573c-3.473 3.004-7.040 5.914-10.795 8.73z" />
<glyph unicode="&#xe945;" d="M547.998 621.045l251.002 251.002c-3.849 2.628-7.885 5.069-11.921 7.603l-249.687-249.687c4.787-4.036 8.26-7.134 10.607-8.917z" />
<glyph unicode="&#xe946;" d="M219.368 292.415l-131.414-131.414c2.628-3.849 5.444-7.697 8.166-11.452l132.916 132.916c-3.285 3.285-6.571 6.571-9.668 9.95z" />
<glyph unicode="&#xe947;" d="M296.527 349.862l95.275 95.369c0 6.477 0 13.141 0 19.524l-104.568-104.568c3.061-3.756 6.099-7.122 9.296-10.329l-0.004 0.004z" />
<glyph unicode="&#xe948;" d="M548.655 620.481l-67.678-67.772-0.751 0.563-58.479-58.573h19.431l369.275 369.181c-3.755 2.722-7.603 5.538-11.452 8.166l-251.002-251.002z" />
<glyph unicode="&#xe949;" d="M460.889 494.699l360.826 360.92c-3.661 2.816-7.509 5.538-11.264 8.26l-369.275-369.181z" />
<glyph unicode="&#xe94a;" d="M229.037 282.465l-132.916-132.916c2.722-3.755 5.444-7.603 8.26-11.264l134.7 134.7c-3.567 3.004-6.758 6.289-10.044 9.481z" />
<glyph unicode="&#xe94b;" d="M306.665 340.475l85.138 85.138v19.618l-95.275-95.369c3.191-3.191 6.571-6.383 10.138-9.387z" />
<glyph unicode="&#xe94c;" d="M480.414 494.699l352.285 352.66c-3.661 2.91-7.228 5.82-10.982 8.636l-360.826-361.296z" />
<glyph unicode="&#xe94d;" d="M239.080 272.984l-134.7-134.7c2.816-3.755 5.726-7.322 8.636-10.982l136.953 136.953c-3.661 2.816-7.416 5.632-10.889 8.73z" />
<glyph unicode="&#xe94e;" d="M317.835 332.121l73.968 74.061v19.431l-85.138-85.138c3.567-2.91 7.322-5.726 11.17-8.354z" />
<glyph unicode="&#xe94f;" d="M330.038 324.799l76.408 76.314h-14.643v5.069l-73.968-73.968c3.942-2.722 7.979-5.163 12.203-7.416z" />
<glyph unicode="&#xe950;" d="M255.789 259.561l-5.82 4.693-137.328-136.953 9.387-10.701 139.112 139.393c-1.69 1.126-3.567 2.253-5.35 3.567z" />
<glyph unicode="&#xe951;" d="M500.032 494.699l343.367 343.273-10.701 9.387-352.285-352.66z" />
<glyph unicode="&#xe952;" d="M519.556 494.699l334.637 333.887-10.513 9.387-343.649-343.273z" />
<glyph unicode="&#xe953;" d="M343.367 318.51l82.603 82.603h-19.524l-76.408-76.314c3.554-1.987 7.938-4.097 12.447-5.965l0.882-0.324z" />
<glyph unicode="&#xe954;" d="M261.139 255.994l-139.112-139.393c3.004-3.567 6.008-7.040 9.387-10.513l141.646 142.115c-4.036 2.441-7.979 4.975-11.921 7.791z" />
<glyph unicode="&#xe955;" d="M352.472 315.224c1.877-0.657 3.755-1.033 5.632-1.502l87.484 87.391h-19.618l-82.603-82.603c3.004-1.22 6.008-2.347 9.105-3.285z" />
<glyph unicode="&#xe956;" d="M273.060 248.203l-141.646-142.397c3.098-3.379 6.289-6.758 9.387-10.044l144.65 145.307c-3.849 2.253-8.354 4.6-12.391 7.134z" />
<glyph unicode="&#xe957;" d="M539.175 494.699l324.406 324.5-9.387 9.387-334.637-333.887z" />
<glyph unicode="&#xe958;" d="M374.343 310.343l90.77 90.77h-19.524l-87.484-87.391c4.481-1.324 9.974-2.505 15.589-3.303l0.65-0.076z" />
<glyph unicode="&#xe959;" d="M285.451 241.069l-144.65-144.65c3.191-3.379 6.289-6.758 9.387-10.044l148.498 148.311c-4.412 1.971-8.824 4.13-13.235 6.383z" />
<glyph unicode="&#xe95a;" d="M558.699 494.699l315.301 315.113c-3.285 3.285-6.665 6.383-10.044 9.387l-324.781-324.5z" />
<glyph unicode="&#xe95b;" d="M578.317 494.699l305.257 305.726c-3.191 3.285-6.289 6.758-9.387 9.95l-315.488-315.676z" />
<glyph unicode="&#xe95c;" d="M392.648 309.123l92.084 91.99h-19.618l-90.77-90.77c5.465-0.741 11.814-1.184 18.26-1.22h0.044z" />
<glyph unicode="&#xe95d;" d="M298.686 234.686l-148.498-148.686c3.191-3.285 6.665-6.383 9.95-9.387l152.535 152.535c-4.693 1.69-9.387 3.567-13.986 5.538z" />
<glyph unicode="&#xe95e;" d="M403.067 309.311c3.473 0 6.946 0.563 10.419 1.033l90.77 90.77h-19.524l-92.084-91.99c3.473-0.094 6.946 0 10.419 0.188z" />
<glyph unicode="&#xe95f;" d="M597.842 494.699l295.213 295.213-9.387 10.138-305.351-305.351z" />
<glyph unicode="&#xe960;" d="M312.672 229.148l-153.098-152.722 10.138-9.387 157.791 157.322c-5.069 1.408-9.95 3.004-14.831 4.787z" />
<glyph unicode="&#xe961;" d="M438.267 315.6l76.784 76.69c0.803 2.604 1.34 5.619 1.498 8.734l0.004 0.090h-12.297l-90.77-90.77c9.302 1.117 17.692 2.961 25.762 5.526l-0.981-0.269z" />
<glyph unicode="&#xe962;" d="M327.504 224.361l-157.416-157.416c3.473-3.098 6.946-6.008 10.513-9.387l162.578 162.86c-5.257 1.126-10.513 2.441-15.676 3.942z" />
<glyph unicode="&#xe963;" d="M611.077 494.699l0.845-5.444 290.144 290.144c-3.004 3.567-5.914 7.040-9.387 10.513l-294.838-295.213z" />
<glyph unicode="&#xe964;" d="M343.179 220.418l-162.578-162.485c3.473-3.004 7.040-6.008 10.701-9.387l168.961 168.961q-8.917 0.939-17.084 2.91z" />
<glyph unicode="&#xe965;" d="M470.745 331.088c4.975 3.41 9.326 6.927 13.384 10.752l-0.054-0.051 4.975 4.975c11.758 12.503 20.72 27.776 25.796 44.728l0.205 0.797-76.784-76.69c12.37 3.808 23.147 9.080 32.888 15.753l-0.41-0.265z" />
<glyph unicode="&#xe966;" d="M614.269 471.889l296.715 296.809c-2.91 3.661-5.914 7.228-9.387 10.701l-289.675-290.144c0.939-5.726 1.69-11.452 2.347-17.365z" />
<glyph unicode="&#xe967;" d="M615.677 453.867l304.224 303.849c-2.816 3.755-5.726 7.416-8.636 10.982l-296.997-296.809c0.657-5.914 1.126-12.015 1.408-18.023z" />
<glyph unicode="&#xe968;" d="M359.794 217.602l-168.492-168.961c3.567-2.91 7.228-5.82 10.982-8.636l175.251 175.72c-5.914 0.375-11.452 1.033-17.741 1.877z" />
<glyph unicode="&#xe969;" d="M615.864 434.342l53.129 53.129v4.13h4.13l77.065 77.159v4.13h4.13l173.561 173.561c-2.722 3.849-5.444 7.603-8.26 11.264l-303.943-303.849c0.282-6.477 0.282-12.954 0.188-19.524z" />
<glyph unicode="&#xe96a;" d="M380.163 215.537h-2.628l-175.251-175.438c3.661-2.816 7.416-5.538 11.264-8.26l183.042 183.135c-5.444 0.188-10.889 0.282-16.427 0.563z" />
<glyph unicode="&#xe96b;" d="M396.59 215.256l-183.042-183.135c3.755-2.722 7.509-5.444 11.452-8.073l192.147 192.147c-6.758-0.563-13.517-0.939-20.557-0.939z" />
<glyph unicode="&#xe96c;" d="M750.189 549.236v19.618l-77.065-77.159h19.524l57.541 57.541z" />
<glyph unicode="&#xe96d;" d="M773.937 572.985l162.015 161.734c-2.628 3.942-5.35 7.697-8.073 11.452l-173.561-173.185z" />
<glyph unicode="&#xe96e;" d="M668.993 468.041v19.524l-53.129-53.223c0-6.946-0.563-13.892-1.314-20.839z" />
<glyph unicode="&#xe96f;" d="M712.266 491.695l37.922 38.016v19.524l-57.541-57.541h19.618z" />
<glyph unicode="&#xe970;" d="M793.462 572.985l150.188 150.188c-2.534 3.942-4.975 7.979-7.697 11.827l-162.015-162.015z" />
<glyph unicode="&#xe971;" d="M611.265 390.788l57.728 57.635v19.618l-54.443-54.443c-0.833-8.84-1.993-16.63-3.533-24.282l0.247 1.472z" />
<glyph unicode="&#xe972;" d="M417.147 216.194l-191.865-192.147c3.849-2.722 7.885-5.163 11.827-7.697l202.848 203.035c-7.603-1.408-15.113-2.441-22.81-3.191z" />
<glyph unicode="&#xe973;" d="M811.484 572.985h1.596l138.173 138.173c-2.441 4.036-5.069 7.979-7.603 12.015l-150.188-150.188z" />
<glyph unicode="&#xe974;" d="M731.791 491.695l18.398 18.398v19.618l-37.922-38.016h19.524z" />
<glyph unicode="&#xe975;" d="M604.694 364.599l64.299 64.299v19.524l-57.728-57.635c-1.957-10.391-4.232-19.191-7.012-27.764l0.442 1.575z" />
<glyph unicode="&#xe976;" d="M456.477 223.047c-5.444-1.408-10.982-2.628-16.521-3.661l-203.129-203.035c4.036-2.534 7.979-5.163 12.015-7.603l217.115 217.115c-3.098-0.939-6.008-1.971-9.481-2.816z" />
<glyph unicode="&#xe977;" d="M813.831 572.985v-18.773l144.556 144.556c-2.347 4.224-4.693 8.354-7.134 12.484l-138.173-138.267z" />
<glyph unicode="&#xe978;" d="M465.958 225.863l-217.115-217.115 12.484-7.134 236.734 236.734c-8.824-4.346-19.458-8.583-30.441-12.034l-1.662-0.45z" />
<glyph unicode="&#xe979;" d="M668.993 428.147v0.751l-64.299-64.299c-3.98-12.745-8.342-23.499-13.459-33.813l0.599 1.335 95.933 96.026h-18.773z" />
<glyph unicode="&#xe97a;" d="M750.189 491.695v18.398l-18.398-18.398h18.398z" />
<glyph unicode="&#xe97b;" d="M813.831 534.499l151.408 151.502c-2.253 4.318-4.506 8.542-6.852 12.672l-144.556-144.556z" />
<glyph unicode="&#xe97c;" d="M687.767 428.147l-95.933-96.026c-6.415-12.878-13.313-23.92-21.129-34.228l0.385 0.529c-19.102-25.421-43.59-45.762-71.859-59.56l-1.17-0.515-236.734-236.734c4.13-2.347 8.354-4.6 12.672-6.852l433.386 433.386z" />
<glyph unicode="&#xe97d;" d="M707.385 428.147l-433.386-433.386c4.224-2.253 8.542-4.506 12.954-6.665l439.957 440.051z" />
<glyph unicode="&#xe97e;" d="M813.831 514.974l158.073 158.073c-2.159 4.412-4.412 8.73-6.665 12.954l-151.408-151.502z" />
<glyph unicode="&#xe97f;" d="M813.831 495.45l164.268 164.174c-1.971 4.506-4.036 9.387-6.195 13.329l-158.073-157.979z" />
<glyph unicode="&#xe980;" d="M726.91 428.147l-439.957-440.051c4.318-2.159 8.824-4.224 13.329-6.195l446.246 446.246z" />
<glyph unicode="&#xe981;" d="M813.831 491.695h15.77l154.6 154.506c-1.971 4.6-4.036 9.387-6.101 13.517l-164.268-164.268z" />
<glyph unicode="&#xe982;" d="M750.189 428.147h-3.661l-446.152-446.246c4.506-2.065 8.917-4.13 13.517-6.101l436.39 436.484z" />
<glyph unicode="&#xe983;" d="M750.189 412.283l-436.39-436.484 13.986-5.538 422.404 422.404z" />
<glyph unicode="&#xe984;" d="M849.219 491.695l140.801 140.801c-1.877 4.693-3.661 9.387-5.538 13.986l-154.881-154.787z" />
<glyph unicode="&#xe985;" d="M868.743 491.695l126.252 126.252c-1.69 4.787-3.473 9.387-5.257 14.268l-140.801-140.801z" />
<glyph unicode="&#xe986;" d="M750.189 392.665l-422.404-422.404 14.268-5.257 408.136 408.136z" />
<glyph unicode="&#xe987;" d="M888.362 491.695l111.608 111.608c-1.596 4.881-3.285 9.387-4.975 14.643l-126.252-126.252z" />
<glyph unicode="&#xe988;" d="M750.189 373.141l-408.136-408.136 14.643-4.975 393.492 393.492z" />
<glyph unicode="&#xe989;" d="M813.737 428.147v-10.982l11.076 10.982h-11.076z" />
<glyph unicode="&#xe98a;" d="M892.679 491.695h2.347v-12.86l109.356 109.356c-1.408 5.069-2.816 10.138-4.412 15.113l-111.608-111.608z" />
<glyph unicode="&#xe98b;" d="M752.535 346.858h-2.347v6.665l-393.492-393.492c4.975-1.596 10.044-3.004 15.113-4.412l391.333 391.24z" />
<glyph unicode="&#xe98c;" d="M824.813 428.147l-11.076-10.982v-19.618l30.601 30.601h-19.524z" />
<glyph unicode="&#xe98d;" d="M844.338 428.147l-30.601-30.601v-19.524l50.219 50.125h-19.618z" />
<glyph unicode="&#xe98e;" d="M763.142 346.858l-391.333-391.24c5.163-1.502 10.232-2.91 15.394-4.224l395.464 395.464z" />
<glyph unicode="&#xe98f;" d="M895.026 459.217l113.58 113.58c-1.314 5.163-2.722 10.232-4.224 15.394l-109.356-109.356z" />
<glyph unicode="&#xe990;" d="M813.737 378.022v-19.618l69.744 69.744h-19.524l-50.219-50.125z" />
<glyph unicode="&#xe991;" d="M782.667 346.858l-395.464-395.464c5.257-1.314 10.607-2.534 15.864-3.661l399.218 399.124z" />
<glyph unicode="&#xe992;" d="M895.026 439.693l117.24 117.24c-1.126 5.257-2.347 10.607-3.661 15.864l-113.58-113.58z" />
<glyph unicode="&#xe993;" d="M1012.267 556.933l-117.24-117.24v-11.546h-11.546l-69.65-69.744v-11.546h-11.546l-399.218-399.124c5.444-1.126 10.889-2.253 16.427-3.191l595.964 595.964c-0.939 5.538-1.69 10.982-3.191 16.427z" />
<glyph unicode="&#xe994;" d="M1015.458 540.506l-595.964-595.964c5.538-1.033 11.076-2.065 16.615-2.91l581.978 581.978c-0.563 5.82-1.596 11.358-2.628 16.896z" />
<glyph unicode="&#xe995;" d="M1018.368 523.892l-581.978-581.978c5.82-0.845 11.64-1.502 17.365-2.159l567.053 567.053c-0.939 5.444-1.596 11.264-2.441 17.084z" />
<glyph unicode="&#xe996;" d="M1020.527 506.526l-567.053-567.053c6.008-0.751 11.921-1.22 17.929-1.69l550.814 550.814c-0.469 6.008-0.939 11.452-1.69 17.929z" />
<glyph unicode="&#xe997;" d="M1022.217 488.598l-550.814-550.814c6.101 0 12.203-0.939 18.773-1.22l532.979 533.636c0 6.195 0 12.297-0.939 18.398z" />
<glyph unicode="&#xe998;" d="M1023.155 470.2l-533.355-533.355c6.289 0 12.672 0 18.773 0l515.051 515.051c0.282 5.632 0.094 12.015-0.469 18.304z" />
<glyph unicode="&#xe999;" d="M1023.906 451.145l-515.051-515.051h3.098c5.632 0 11.264 0 16.802 0l494.4 495.151c0 5.538 0 11.17 0 16.802 0.845 1.033 0.751 2.065 0.751 3.098z" />
<glyph unicode="&#xe99a;" d="M549.406-62.498l473.092 473.092c0 6.852 0.845 13.705 1.033 20.651l-494.775-494.4c6.946 0 13.799 0 20.651 0.657z" />
<glyph unicode="&#xe99b;" d="M570.996-60.527l449.531 449.531c0.751 7.134 1.408 14.362 1.971 21.59l-473.092-473.092c7.228 0.563 14.456 1.22 21.59 1.971z" />
<glyph unicode="&#xe99c;" d="M593.618-57.429l423.812 423.812c1.22 7.509 2.159 15.019 3.098 22.622l-449.531-449.531c7.603 0.939 15.113 1.877 22.622 3.098z" />
<glyph unicode="&#xe99d;" d="M617.648-53.018l395.37 395.37c1.69 7.979 3.098 15.957 4.412 24.030l-423.812-423.812c8.073 1.314 16.521 2.722 24.030 4.412z" />
<glyph unicode="&#xe99e;" d="M643.274-46.916l363.642 363.642c2.253 8.448 4.318 16.99 6.101 25.626l-395.37-395.37c8.636 1.783 17.178 3.849 25.626 6.101z" />
<glyph unicode="&#xe99f;" d="M671.152-38.656l327.504 327.504c3.004 9.387 5.726 18.773 8.26 28.16l-363.642-363.924c9.387 2.534 18.68 5.257 27.879 8.26z" />
<glyph unicode="&#xe9a0;" d="M701.847-27.486l285.639 285.639c4.036 10.044 7.697 20.275 11.17 30.695l-327.504-327.504c10.419 3.661 20.651 7.134 30.695 11.17z" />
<glyph unicode="&#xe9a1;" d="M736.953-11.997l234.669 234.669c5.538 11.452 10.701 23.185 15.488 35.106l-285.263-285.263c11.546 4.787 23.655 9.95 35.106 15.488z" />
<glyph unicode="&#xe9a2;" d="M780.696 11.939l167.366 167.366q13.141 21.308 24.218 43.742l-234.669-234.669q21.871 10.701 43.085 23.561z" />
<glyph unicode="&#xe9a3;" d="M948.061 179.304l-167.366-167.366c68.488 42.7 124.665 98.877 166.108 165.207l1.258 2.159z" />
<glyph unicode="&#xe9a4;" d="M611.265 390.788c1.293 6.18 2.453 13.97 3.213 21.876l0.073 0.933c0.751 6.946 1.126 13.892 1.314 20.839s0 12.954 0 19.431-0.751 12.109-1.408 18.116-1.408 11.546-2.347 17.272l-0.845 5.444h-219.274c-0.041-0.548-0.065-1.186-0.065-1.83s0.023-1.283 0.069-1.915l-0.005 0.085v-26.283c0-6.383 0-13.048 0-19.524v-44.118h124.281c-0.162-3.205-0.699-6.22-1.571-9.089l0.069 0.266c-5.281-17.749-14.243-33.023-26.056-45.584l0.054 0.058-4.975-4.975c-3.934-3.776-8.192-7.291-12.703-10.471l-0.344-0.23c-9.332-6.408-20.108-11.68-31.629-15.261l-0.849-0.227c-7.089-2.295-15.479-4.14-24.115-5.191l-0.666-0.066c-3.473-0.469-6.946-0.845-10.419-1.033s-6.946 0-10.419 0c-6.49 0.037-12.839 0.479-19.068 1.303l0.764-0.083c-6.265 0.874-11.758 2.055-17.1 3.591l0.861-0.212c-1.877 0-3.755 0.845-5.632 1.502s-6.101 2.065-9.387 3.285c-5.391 2.193-9.775 4.302-14.018 6.636l0.688-0.347c-4.224 2.253-8.26 4.693-12.203 7.322s-7.603 5.444-11.17 8.354-6.946 6.195-10.138 9.387c-3.242 3.193-6.31 6.528-9.208 10.010l-0.179 0.221c-2.64 3.305-5.329 7.039-7.833 10.903l-0.333 0.549c-2.057 3.32-4.217 7.32-6.157 11.445l-0.32 0.758c-1.88 3.522-3.93 7.973-5.756 12.537l-0.346 0.98c-1.548 3.768-3.214 8.67-4.626 13.679l-0.255 1.058c-1.207 4.26-2.384 9.716-3.265 15.271l-0.114 0.874c0 2.628-0.751 5.257-1.033 7.979s-0.469 6.665-0.469 10.044c-0.023 0.881-0.037 1.917-0.037 2.957 0 6.311 0.491 12.507 1.437 18.553l-0.086-0.671c0.539 4.421 1.231 8.248 2.118 12l-0.147-0.736c1.435 5.998 2.917 10.889 4.64 15.666l-0.322-1.022c6.191 17.682 15.125 32.938 26.439 46.087l-0.156-0.186c5.040 5.828 10.317 11.105 15.951 15.981l0.194 0.165c12.622 10.728 27.479 19.289 43.722 24.87l0.959 0.287c7.265 2.501 15.833 4.508 24.67 5.654l0.674 0.071c5.128 0.686 11.057 1.077 17.077 1.077 1.224 0 2.443-0.016 3.659-0.048l-0.179 0.004c5.79-0.168 11.301-0.674 16.705-1.502l-0.747 0.094h1.971c6.219-0.977 11.603-2.219 16.842-3.796l-0.885 0.229c10.356-2.986 19.392-7.018 27.712-12.106l-0.49 0.279c4.13-2.534 7.979-5.163 11.733-7.885s7.322-5.726 10.795-8.73l0.751-0.563 67.678 67.772-0.657 0.563c-2.347 1.783-5.82 4.881-10.607 9.387-3.191 2.534-6.852 5.444-11.076 8.542s-7.322 5.163-11.64 7.885l-7.228 4.412c-1.69 1.033-3.473 1.877-5.163 2.816-4.318 2.253-8.636 4.506-12.954 6.477s-9.387 4.13-13.799 5.914-9.387 3.473-14.549 4.975-10.232 2.91-15.394 4.13-10.889 2.347-16.427 3.098-11.64 1.596-17.553 2.065-9.387 0.563-14.643 0.563h-4.412c-6.008 0-11.921 0-17.929-0.657h-2.441c-8.242-0.468-15.904-1.472-23.378-2.992l1.038 0.176c-4.6-0.845-9.387-1.783-13.611-2.91s-8.542-2.534-12.766-3.849c-45.379-14.284-83.523-40.689-111.838-75.423l-0.334-0.422c-10.936-13.378-20.689-28.474-28.665-44.606l-0.621-1.389c-4.349-8.827-8.557-19.434-11.959-30.394l-0.432-1.615c-2.32-7.198-4.566-16.263-6.261-25.521l-0.216-1.419c-1.314-7.416-2.347-14.925-3.004-22.622 0-2.347-0.563-4.506-0.751-6.852 0-4.6 0-9.387 0-13.799 0-6.289 0-12.578 0.751-18.773s1.22-11.546 2.159-17.365c0.751-4.224 1.502-8.448 2.441-12.672 0-1.22 0.657-2.347 0.939-3.567 1.22-5.163 2.628-10.325 4.13-15.394s3.285-9.387 5.163-14.456 3.661-9.387 5.632-13.892 4.036-9.387 6.289-13.235 4.787-8.26 7.322-12.297 5.069-7.979 7.791-11.827 5.35-7.603 8.26-11.264 6.008-7.040 9.387-10.419 6.383-6.665 9.387-9.95 6.477-6.477 10.044-9.387 7.228-5.914 10.889-8.73l5.82-4.693c1.783-1.314 3.661-2.441 5.35-3.661 3.942-2.722 7.885-5.257 11.921-7.697s8.26-4.881 12.391-7.134 8.824-4.412 13.235-6.383 9.387-3.849 13.986-5.538 9.387-3.379 14.831-4.787 10.325-2.816 15.676-3.942 10.982-2.065 16.615-2.816 11.827-1.502 17.741-1.877h2.628c5.538 0 10.982 0 16.427 0 6.946 0 13.799 0 20.557 0.939s15.207 1.783 22.81 3.191c5.538 1.033 11.076 2.253 16.521 3.661 3.285 0.845 6.383 1.877 9.387 2.816 12.645 3.902 23.279 8.139 33.5 13.096l-1.397-0.611c29.438 14.313 53.927 34.654 72.664 59.568l0.365 0.507c7.431 9.778 14.329 20.82 20.187 32.475l0.557 1.224c4.517 8.979 8.879 19.734 12.415 30.856l0.445 1.622c2.243 6.887 4.422 15.57 6.076 24.437l0.213 1.376z" />
<glyph unicode="&#xe9a5;" d="M895.026 478.835v12.86h-81.289v81.289h-63.548v-81.289h-81.195v-63.548h81.195v-81.289h63.548v81.289h81.289v50.688z" />
<glyph unicode="&#xe9a6;" d="M563.799 507.057v1.131l-0.754-1.131z" />
<glyph unicode="&#xe9a7;" d="M512.047 960c-0.028 0-0.061 0-0.094 0-282.796 0-512.047-229.251-512.047-512.047s229.251-512.047 512.047-512.047c282.796 0 512.047 229.251 512.047 512.047 0 0.033 0 0.067 0 0.1v-0.006c-0.375 282.593-229.36 511.578-511.917 511.953h-0.036zM383.941 217.852c0-4.738-3.841-8.578-8.578-8.578v0h-98.601c-4.738 0-8.578 3.841-8.578 8.578v0 331.153c0 4.738 3.841 8.578 8.578 8.578v0h98.601c4.738 0 8.578-3.841 8.578-8.578v0zM322.575 601.793c-34.256 0-62.026 27.77-62.026 62.026s27.77 62.026 62.026 62.026c34.256 0 62.026-27.77 62.026-62.026 0-0.033 0-0.066 0-0.099v0.005c0 0 0 0 0 0 0-34.204-27.728-61.932-61.932-61.932-0.033 0-0.066 0-0.099 0h0.005zM801.252 217.852c0-4.738-3.841-8.578-8.578-8.578v0h-98.507c0 0 0 0-0.001 0-4.685 0-8.484 3.798-8.484 8.484 0 0.033 0 0.066 0.001 0.099v-0.005 177.784c0 47.132-16.779 78.711-58.633 78.711-27.31-0.137-50.527-17.509-59.341-41.789l-0.14-0.441c-2.446-7.337-3.857-15.784-3.857-24.56 0-1.308 0.031-2.609 0.093-3.902l-0.007 0.182v-185.985c0-4.738-3.841-8.578-8.578-8.578v0h-98.695c0 0 0 0-0.001 0-4.685 0-8.484 3.798-8.484 8.484 0 0.033 0 0.066 0.001 0.099v-0.005c0 47.132 1.225 277.045 0 331.058-0.001 0.056-0.002 0.123-0.002 0.189 0 4.685 3.798 8.484 8.484 8.484 0.034 0 0.068 0 0.102-0.001h98.596c4.738 0 8.578-3.841 8.578-8.578v0-40.817c20.183 34.722 57.208 57.694 99.598 57.694 1.672 0 3.335-0.036 4.99-0.106l-0.236 0.008c76.543 0 133.102-49.772 133.102-156.763z" />
<glyph unicode="&#xe9a8;" d="M668.15 565.784c-1.418 0.063-3.082 0.098-4.754 0.098-42.39 0-79.415-22.972-99.303-57.147l-0.294-0.548v-1.131h-0.754l0.754 1.131v40.817c0 4.738-3.841 8.578-8.578 8.578v0h-98.413c-0.029 0-0.062 0.001-0.096 0.001-4.685 0-8.484-3.798-8.484-8.484 0-0.066 0.001-0.133 0.002-0.199v0.010c1.037-54.014 0-283.737 0-331.058 0-0.028-0.001-0.061-0.001-0.094 0-4.685 3.798-8.484 8.484-8.484 0 0 0 0 0.001 0h98.507c4.738 0 8.578 3.841 8.578 8.578v0 185.985c-0.055 1.11-0.086 2.411-0.086 3.719 0 8.777 1.411 17.223 4.019 25.126l-0.162-0.566c8.924 24.761 32.15 42.173 59.463 42.325h0.019c41.854 0 58.633-31.956 58.633-78.711v-177.878c0-0.028-0.001-0.061-0.001-0.094 0-4.685 3.798-8.484 8.484-8.484 0 0 0 0 0.001 0h98.695c4.738 0 8.578 3.841 8.578 8.578v0 191.169c-0.189 106.991-56.747 156.763-133.291 156.763z" />
<glyph unicode="&#xe9a9;" d="M276.762 557.583h98.601c4.738 0 8.578-3.841 8.578-8.578v-331.153c0-4.738-3.841-8.578-8.578-8.578h-98.601c-4.738 0-8.578 3.841-8.578 8.578v331.153c0 4.738 3.841 8.578 8.578 8.578z" />
<glyph unicode="&#xe9aa;" d="M322.575 725.846c-34.256 0-62.026-27.77-62.026-62.026s27.77-62.026 62.026-62.026c34.256 0 62.026 27.77 62.026 62.026v0c0 0.028 0 0.061 0 0.094 0 34.204-27.728 61.932-61.932 61.932-0.033 0-0.066 0-0.099 0h0.005z" />
<glyph unicode="&#xe9ab;" d="M511.954 960c-282.795 0-512.046-229.251-512.046-512.046s229.251-512.046 512.046-512.046c282.795 0 512.046 229.251 512.046 512.046 0 0.033 0 0.065 0 0.098v-0.005c0 282.744-229.209 511.954-511.954 511.954-0.033 0-0.065 0-0.098 0h0.005zM511.954 121.297c-56.307 0.037-109.272 14.311-155.501 39.416l1.72-0.855-136.725-37.541c-2.275-0.627-4.89-0.998-7.588-1.020h-0.013c-15.744 0.032-28.495 12.802-28.495 28.55 0 4.266 0.936 8.314 2.613 11.949l-0.073-0.177 49.592 109.38c-32.66 49.705-52.096 110.634-52.096 176.102 0 0.332 0.001 0.665 0.002 0.997v-0.051c0 180.459 146.291 326.749 326.749 326.749s326.749-146.291 326.749-326.749c0-180.459-146.291-326.749-326.749-326.749-0.065 0-0.13 0-0.195 0h0.010z" />
<glyph unicode="&#xe9ac;" d="M511.954 717.603c-148.859-0.018-269.526-120.696-269.526-269.557 0-59.175 19.068-113.897 51.395-158.356l-0.537 0.775c3.35-4.609 5.359-10.381 5.359-16.622 0-4.292-0.95-8.362-2.651-12.011l0.073 0.175-31.053-68.501 89.265 24.471c2.276 0.634 4.892 1.005 7.592 1.020h0.009c0.008 0 0.016 0 0.025 0 5.287 0 10.236-1.446 14.473-3.965l-0.131 0.072c38.868-23.015 85.667-36.614 135.642-36.614 148.872 0 269.557 120.685 269.557 269.557 0 148.85-120.648 269.52-269.49 269.557h-0.004zM672.316 343.487c-11.573-23.636-33.702-40.557-60.073-44.712l-0.457-0.059c-24.101-4.542-44.030 3.152-66.37 10.475-21.845 7.574-40.707 16.751-58.244 27.835l1.144-0.675c-36.173 22.632-66.536 50.928-90.763 84.001l-0.634 0.908c-6.782 9.086-13.761 19.553-20.201 30.379l-0.933 1.694c-8.456 13.332-15.365 28.742-19.919 45.132l-0.288 1.215c-1.577 6.323-2.519 13.6-2.595 21.085v0.050c-0.034 0.892-0.054 1.94-0.054 2.992 0 25.259 11.225 47.896 28.959 63.194l0.108 0.091c6.695 6.015 15.595 9.694 25.355 9.694 5.766 0 11.232-1.284 16.127-3.581l-0.233 0.098c13.997-7.972 21.227-27.808 27.808-41.805 5.861-9.999 9.321-22.019 9.321-34.848 0-0.947-0.019-1.89-0.056-2.828l0.004 0.135c-3.915-12.548-10.668-23.251-19.534-31.771l-0.025-0.024c-2.761-2.409-4.496-5.934-4.496-9.864 0-3.080 1.065-5.911 2.847-8.145l-0.020 0.026c24.594-41.742 61.686-73.866 106.076-91.627l1.45-0.512c1.684-0.974 3.705-1.548 5.861-1.548 3.889 0 7.341 1.871 9.505 4.762l0.022 0.031c7.972 9.918 15.851 29.292 27.808 34.39 16.129 6.581 33.926-2.595 47.552-10.753s34.112-16.963 37.078-32.721c0.509-2.365 0.801-5.082 0.801-7.867 0-5.354-1.078-10.456-3.029-15.1l0.096 0.257z" />
<glyph unicode="&#xe9ad;" d="M511.954 774.61c-180.25-0.263-326.3-146.313-326.564-326.538v-0.026c-0.001-0.238-0.001-0.521-0.001-0.803 0-65.528 19.471-126.508 52.944-177.47l-0.756 1.225-49.592-109.38c-1.604-3.458-2.54-7.506-2.54-11.772 0-15.748 12.751-28.518 28.492-28.55h0.003c2.711 0.021 5.326 0.392 7.815 1.069l-0.214-0.050 136.725 37.541c44.561-24.283 97.596-38.561 153.966-38.561 180.407 0 326.657 146.249 326.657 326.657s-146.249 326.657-326.657 326.657c-0.098 0-0.195 0-0.293 0h0.015zM511.954 178.304c-50.049 0.126-96.858 13.886-136.942 37.76l1.236-0.682c-3.995 2.282-8.781 3.628-13.88 3.628-0.302 0-0.603-0.005-0.902-0.014l0.044 0.001c-2.709-0.015-5.325-0.386-7.812-1.069l0.211 0.049-89.265-24.471 31.053 68.501c1.628 3.474 2.578 7.544 2.578 11.836 0 6.241-2.009 12.013-5.416 16.704l0.057-0.082c-31.749 43.665-50.792 98.353-50.792 157.488 0 148.872 120.685 269.557 269.557 269.557s269.557-120.685 269.557-269.557c0-148.776-120.529-269.401-269.269-269.556h-0.015z" />
<glyph unicode="&#xe9ae;" d="M637.555 399.103c-13.626 8.157-31.424 17.334-47.552 10.753-12.421-5.098-20.3-24.471-27.808-34.39-2.186-2.922-5.638-4.793-9.527-4.793-2.155 0-4.176 0.575-5.918 1.579l0.057-0.031c-45.84 18.273-82.932 50.396-106.979 91.136l-0.547 1.003c-1.762 2.208-2.827 5.039-2.827 8.118 0 3.93 1.735 7.455 4.48 9.851l0.015 0.013c8.891 8.543 15.643 19.247 19.416 31.269l0.142 0.525c0.033 0.803 0.052 1.746 0.052 2.694 0 12.829-3.461 24.849-9.5 35.178l0.179-0.33c-6.489 13.997-13.719 33.834-27.808 41.805-4.663 2.199-10.129 3.483-15.895 3.483-9.759 0-18.66-3.679-25.39-9.725l0.035 0.031c-17.842-15.389-29.067-38.026-29.067-63.285 0-1.052 0.019-2.1 0.058-3.143l-0.004 0.151c0.076-7.534 1.018-14.811 2.731-21.785l-0.135 0.651c4.843-17.605 11.752-33.015 20.627-47.058l-0.42 0.711c7.373-12.519 14.353-22.987 21.835-33.059l-0.7 0.986c24.861-33.981 55.224-62.277 90.047-84.119l1.35-0.79c16.393-10.409 35.255-19.585 55.151-26.564l1.949-0.596c22.339-7.323 42.269-15.017 66.37-10.475 26.716 4.302 48.73 21.201 60.041 44.295l0.211 0.476c2.151 4.687 3.405 10.169 3.405 15.943 0 2.458-0.227 4.862-0.662 7.194l0.037-0.241c-3.337 15.573-24.657 24.935-37.449 32.536z" />
<glyph unicode="&#xe9af;" glyph-name="facebook2" d="M841.591 960h-659.182c-100.699-0.105-182.304-81.709-182.409-182.399v-659.192c0.314-100.541 81.839-181.936 182.399-182.040h659.192c100.412 0.314 181.727 81.629 182.040 182.010v659.212c-0.104 100.57-81.499 182.095-182.010 182.409h-0.030zM1010.167 118.409c-0.105-93.060-75.516-168.471-168.566-168.576h-659.192c-93.060 0.105-168.471 75.516-168.576 168.566v659.192c0.105 93.060 75.516 168.471 168.566 168.576h659.192c93.060-0.105 168.471-75.516 168.576-168.566v-0.010zM435.089 635.85v-82.167h-64v-104.392h64v-306.628h122.928v307.919h85.764l9.222 103.101h-94.986v58.744c0 24.254 4.888 33.844 28.403 33.844h66.49v106.974h-85.118c-91.481 0-132.703-40.3-132.703-117.395z" />
<glyph unicode="&#xe9b0;" glyph-name="google2" d="M841.591 960h-659.182c-100.699-0.105-182.304-81.709-182.409-182.399v-659.192c0.314-100.541 81.839-181.936 182.399-182.040h659.192c100.412 0.314 181.727 81.629 182.040 182.010v659.212c-0.104 100.57-81.499 182.095-182.010 182.409h-0.030zM1010.167 118.409c-0.105-93.060-75.516-168.471-168.566-168.576h-659.192c-93.060 0.105-168.471 75.516-168.576 168.566v659.192c0.105 93.060 75.516 168.471 168.566 168.576h659.192c93.060-0.105 168.471-75.516 168.576-168.566v-0.010zM371.089 461.187v-58.467h137.867c-16.323-71.193-66.305-114.813-133.902-114.813-0.038 0-0.084 0-0.129 0-88.416 0-160.092 71.676-160.092 160.092s71.676 160.092 160.092 160.092c42.131 0 80.46-16.274 109.045-42.879l-0.097 0.090 45.095 39.009c-39.57 38.942-93.901 62.986-153.849 62.986-121.165 0-219.389-98.224-219.389-219.389 0-121.142 98.187-219.352 219.321-219.389h0.004c116.38 0 200.484 88.807 200.484 209.983v22.686zM784.231 542.986h-53.764v-84.288h-84.196v-53.764h84.196v-84.196h53.764v84.196h84.196v53.764h-84.196v84.288z" />
<glyph unicode="&#xe9b1;" glyph-name="linkedin2" d="M837.595 960h-651.191c-102.905-0.107-186.297-83.499-186.405-186.394v-651.201c0.107-102.905 83.499-186.297 186.394-186.405h651.201c102.905 0.107 186.297 83.499 186.405 186.394v651.201c-0.107 102.905-83.499 186.297-186.394 186.405h-0.010zM1009.864 122.405c-0.107-95.098-77.17-172.161-172.258-172.269h-651.201c-95.098 0.107-172.161 77.17-172.269 172.258v651.201c0.107 95.098 77.17 172.161 172.258 172.269h651.201c95.098-0.107 172.161-77.17 172.269-172.258v-0.010zM282.999 560.521h104.511v-337.564h-104.511v337.564zM334.831 729.397c-0.196 0.002-0.428 0.003-0.66 0.003-34.455 0-62.386-27.931-62.386-62.386s27.931-62.386 62.386-62.386c34.455 0 62.386 27.931 62.386 62.386 0 0.032 0 0.064 0 0.096v-0.005c0 0.084 0.001 0.184 0.001 0.283 0 34.148-27.602 61.848-61.712 62.009h-0.015zM656.374 570.888c-0.48 0.007-1.047 0.011-1.614 0.011-42.103 0-79.046-22.088-99.876-55.308l-0.288-0.492v45.423h-100.27v-337.564h100.27v177.169c0 47.119 21.863 75.391 63.706 75.391 38.355 0 56.543-27.141 56.543-75.391v-177.169h103.663v213.734c0.66 90.469-50.606 134.196-122.134 134.196z" />
<glyph unicode="&#xe9b2;" glyph-name="whatsapp2" d="M512 960c-282.73-0.052-511.908-229.263-511.908-512 0-282.77 229.23-512 512-512s512 229.23 512 512v0c-0.367 282.654-229.43 511.685-512.062 512h-0.030zM512-50.167c-275.028 0-497.983 222.954-497.983 497.983s222.954 497.983 497.983 497.983c275.028 0 497.983-222.954 497.983-497.983v0c-0.419-274.859-223.123-497.563-497.942-497.983h-0.040zM517.072 725.118c-0.231 0.001-0.504 0.001-0.777 0.001-145.234 0-263.814-114.117-270.967-257.575l-0.025-0.64c0-3.873 0-7.839 0-11.804-0.001-0.24-0.001-0.525-0.001-0.81 0-51.238 14.409-99.111 39.397-139.787l-0.664 1.162-49.061-144.784 150.686 47.862c37.841-21.183 83.036-33.659 131.145-33.659 149.589 0 271.007 120.611 272.312 269.892l0.001 0.124c0 2.305 0 4.611 0 6.916-4.364 146.226-123.946 263.104-270.826 263.104-0.429 0-0.858-0.001-1.286-0.003h0.066zM517.072 228.15c-0.172 0-0.376-0.001-0.58-0.001-46.626 0-89.971 14.049-126.033 38.145l0.826-0.519-87.885-27.666 28.588 83.919c-27.192 36.694-43.528 82.858-43.528 132.838 0 0.083 0 0.165 0 0.247v-0.013c0 0.014 0 0.030 0 0.046 0 7.746 0.402 15.398 1.186 22.936l-0.079-0.942c12.35 115.804 109.522 205.218 227.577 205.218 119.586 0 217.744-91.747 227.924-208.692l0.060-0.86c0-5.902 0.738-11.712 0.738-17.706-0.68-125.487-102.564-226.952-228.147-226.952-0.228 0-0.456 0-0.684 0.001h0.035zM641.752 400.599c-6.732 3.32-39.47 19.366-46.11 21.487s-10.052 3.043-14.663-3.32-17.337-21.487-21.21-25.821-7.746-4.98-14.478-1.66c-20.661 8.277-38.434 19.387-53.858 33.085l0.186-0.162c-14.33 13.223-26.577 28.406-36.389 45.186l-0.499 0.923c-3.873 6.64 0 10.236 2.859 13.556s6.64 7.746 10.052 11.527l2.49 3.228c1.369 2.198 2.755 4.801 3.973 7.495l0.176 0.436c0.945 1.66 1.503 3.647 1.503 5.764s-0.557 4.104-1.533 5.822l0.031-0.058c-1.66 3.32-15.032 35.965-20.657 49.153s-11.066 10.974-15.032 10.974-8.3 0.646-12.726 0.646c-7.089-0.191-13.405-3.35-17.776-8.274l-0.022-0.025c-14.385-13.496-23.346-32.626-23.346-53.849 0-0.521 0.005-1.041 0.016-1.56l-0.001 0.077c0.124-8.096 1.362-15.854 3.567-23.194l-0.155 0.601c5.641-17.632 13.743-32.947 24.063-46.48l-0.271 0.37c3.32-4.334 46.11-73.775 113.89-99.965s67.873-17.522 80.138-16.415 39.562 15.862 44.542 31.354c3.123 6.665 4.946 14.473 4.946 22.707 0 3.086-0.256 6.113-0.748 9.059l0.044-0.319c-1.937 2.674-6.363 4.519-13.003 7.654z" />
<glyph unicode="&#xe9b3;" glyph-name="upload" d="M448 384h128v256h192l-256 256-256-256h192zM640 528v-98.712l293.066-109.288-421.066-157.018-421.066 157.018 293.066 109.288v98.712l-384-144v-256l512-192 512 192v256z" />
<glyph unicode="&#xe9b4;" glyph-name="chevron-left" d="M670.165 200.832l-225.835 225.835 225.835 225.835c16.683 16.683 16.683 43.691 0 60.331s-43.691 16.683-60.331 0l-256-256c-16.683-16.683-16.683-43.691 0-60.331l256-256c16.683-16.683 43.691-16.683 60.331 0s16.683 43.691 0 60.331z" />
<glyph unicode="&#xe9b5;" glyph-name="chevron-right" d="M414.165 140.502l256 256c16.683 16.683 16.683 43.691 0 60.331l-256 256c-16.683 16.683-43.691 16.683-60.331 0s-16.683-43.691 0-60.331l225.835-225.835-225.835-225.835c-16.683-16.683-16.683-43.691 0-60.331s43.691-16.683 60.331 0z" />
</font>
</defs>
</svg>
