<?xml version="1.0" encoding="utf-8"?>
<!-- Generator: Adobe Illustrator 24.2.3, SVG Export Plug-In . SVG Version: 6.00 Build 0)  -->
<svg version="1.1" id="Capa_1" xmlns="http://www.w3.org/2000/svg" xmlns:xlink="http://www.w3.org/1999/xlink" x="0px" y="0px"
	 viewBox="0 0 182 182" style="enable-background:new 0 0 182 182;" xml:space="preserve">
<style type="text/css">
	.st0{fill:#FFFFFF;}
	.st1{enable-background:new    ;}
	.st2{fill:#2E2E2E;}
</style>
<g id="Grupo_432" transform="translate(-911.73 -99)">
	<g transform="matrix(1, 0, 0, 1, 911.73, 99)">
		<path id="Elipse_1_copia_5-2" class="st0" d="M6,91C6,44.1,44.1,6,91,6s85,38.1,85,85s-38.1,85-85,85l0,0C44.1,176,6,137.9,6,91z"
			/>
	</g>
	<g class="st1">
		<path class="st2" d="M1033.6,219.3h-30.6v-10.7h8.1l-11.3-12.1l-11.3,12.1h8v10.7H968v-10.7h6.8l18-18.3L976.2,173h-6.8v-10.7
			h29.7V173h-7.2l10.3,11.8l10.2-11.8h-7.3v-10.7h27.2V173h-6.8l-16.5,17.2l17.9,18.4h6.8V219.3z"/>
	</g>
</g>
</svg>
